<svg width="18" height="18" viewBox="0 0 18 18" fill="none" xmlns="http://www.w3.org/2000/svg">
<g clip-path="url(#clip0_930_8612)">
<path d="M17.28 0H0.72C0.32175 0 0 0.32175 0 0.72V17.28C0 17.6782 0.32175 18 0.72 18H17.28C17.6782 18 18 17.6782 18 17.28C18 10.8129 18 7.18708 18 0.72C18 0.32175 17.6782 0 17.28 0ZM9.8055 4.83075C9.6435 4.5855 9.35325 4.46175 8.93475 4.46175C8.9055 4.46175 8.86725 4.464 8.8155 4.4685C8.766 4.473 8.667 4.50225 8.52525 4.55175C8.38288 4.60268 8.24754 4.67148 8.1225 4.7565C7.99875 4.842 7.86375 4.9815 7.7175 5.1705C7.45061 5.52496 7.06117 5.81311 6.61922 5.77362L6.10458 5.72763C5.62545 5.68481 5.24604 5.27185 5.41575 4.82175C5.51925 4.54725 5.68125 4.284 5.89725 4.03425C6.11325 3.78225 6.372 3.56175 6.6735 3.37275C6.975 3.1815 7.3395 3.03075 7.7625 2.916C8.18775 2.80125 8.64225 2.745 9.13275 2.745C9.612 2.745 10.0463 2.8035 10.4333 2.91825C10.8203 3.03525 11.133 3.177 11.3647 3.348C11.588 3.50909 11.7847 3.70421 11.9475 3.92625C12.1027 4.14225 12.2108 4.3425 12.2715 4.527C12.3323 4.7115 12.3615 4.88025 12.3615 5.04V9.14625C12.3615 9.29025 12.393 9.43875 12.4583 9.59175C12.5235 9.74475 12.6 9.87975 12.6877 9.99675C12.7755 10.1138 12.8655 10.2195 12.9578 10.3185C13.05 10.4152 13.1287 10.4917 13.1962 10.5413C13.2454 10.582 13.248 10.6565 13.2019 10.7006L12.2162 11.6442C11.9013 11.9457 11.4042 11.9553 11.0903 11.6528C10.9035 11.4728 10.764 11.3378 10.674 11.2455L10.5367 11.106C10.4365 11.0099 10.2711 11.004 10.1818 11.1103C10.0319 11.2888 9.85676 11.4493 9.657 11.592C9.37125 11.7945 9.06525 11.943 8.74125 12.0353C8.415 12.1275 8.07975 12.1815 7.7355 12.195C7.39125 12.2085 7.0605 12.1613 6.74775 12.0487C6.435 11.9362 6.1515 11.7855 5.90175 11.592C5.652 11.3985 5.454 11.1375 5.3055 10.8045C5.157 10.4715 5.08275 10.0957 5.08275 9.6705C5.08275 9.279 5.15025 8.92125 5.283 8.59725C5.418 8.271 5.589 8.001 5.8005 7.785C6.012 7.569 6.26625 7.3755 6.5655 7.20675C6.86475 7.038 7.1595 6.90525 7.4475 6.8085C7.7355 6.714 8.046 6.633 8.38125 6.56775C8.7165 6.5025 9.00225 6.45975 9.24075 6.4395C9.63959 6.40564 9.95625 6.0778 9.95625 5.67752V5.508C9.95625 5.20425 9.9045 4.97925 9.8055 4.83075ZM13.8667 13.3717C13.8038 13.446 13.698 13.5472 13.5495 13.6755C13.3267 13.8679 13.1715 13.9613 12.8632 14.1503C12.555 14.3393 12.2153 14.5103 11.8507 14.6655C11.484 14.8208 11.034 14.9558 10.4985 15.0705C9.96525 15.1853 9.414 15.2415 8.84925 15.2415C8.27775 15.2415 7.7085 15.1695 7.137 15.0255C6.5655 14.8815 6.066 14.7037 5.634 14.4923C5.20425 14.2808 4.788 14.0378 4.39425 13.7677C3.99825 13.4955 3.681 13.2525 3.44025 13.0365C3.20175 12.8205 2.99925 12.6158 2.83725 12.4268C2.799 12.384 2.77425 12.3457 2.76525 12.312C2.75625 12.2782 2.7585 12.249 2.772 12.2288C2.7855 12.2085 2.80575 12.1927 2.8305 12.1792C2.85738 12.1673 2.88693 12.1627 2.91617 12.1659C2.94541 12.169 2.97329 12.1799 2.997 12.1972C3.91725 12.7417 4.63725 13.1265 5.15475 13.3538C7.02 14.1728 8.93475 14.382 10.899 13.9815C11.8103 13.7948 12.7463 13.482 13.7093 13.041C13.7812 13.014 13.8442 13.0072 13.896 13.0208C13.9478 13.0343 13.9748 13.0747 13.9748 13.1423C13.9748 13.2052 13.9388 13.284 13.8667 13.3717ZM15.2145 12.7192C15.174 12.969 15.1042 13.2052 15.0098 13.4348C14.8477 13.8195 14.643 14.1097 14.4 14.2987C14.319 14.364 14.256 14.3842 14.2133 14.3617C14.1705 14.3393 14.1705 14.283 14.2133 14.1953C14.3145 13.986 14.4202 13.7048 14.5328 13.347C14.6453 12.9915 14.661 12.762 14.58 12.6608C14.5553 12.627 14.5192 12.6023 14.4675 12.5798C14.418 12.5595 14.3527 12.546 14.274 12.537C14.1953 12.528 14.1233 12.5235 14.0625 12.519C13.9995 12.5145 13.9163 12.5145 13.8105 12.519C13.7048 12.5235 13.6305 12.528 13.5833 12.5325C13.4551 12.545 13.3269 12.5563 13.1985 12.5662C13.1693 12.5708 13.1377 12.5752 13.1062 12.5775C13.0725 12.5798 13.0455 12.582 13.0275 12.5843L12.9668 12.591C12.9443 12.5933 12.9285 12.5955 12.9172 12.5955H12.8517C12.8474 12.5955 12.8431 12.5951 12.8389 12.5942L12.8327 12.593C12.8262 12.5917 12.8201 12.5888 12.815 12.5845C12.8112 12.5814 12.808 12.5775 12.8056 12.5732L12.798 12.5595C12.7688 12.4853 12.8813 12.393 13.1355 12.2805C13.3898 12.168 13.6372 12.0983 13.8758 12.0712C14.0963 12.0375 14.355 12.0375 14.652 12.0645C14.949 12.0915 15.1313 12.1477 15.1988 12.231C15.2505 12.3097 15.255 12.4718 15.2145 12.7192ZM8.3925 7.99875C8.1315 8.109 7.92225 8.27325 7.767 8.49375C7.61175 8.71425 7.533 8.97975 7.533 9.2925C7.533 9.693 7.70175 10.0013 8.037 10.2195C8.35425 10.4242 8.68725 10.476 9.036 10.3725C9.43875 10.2555 9.711 9.96975 9.855 9.51525C9.9225 9.306 9.95625 9.072 9.95625 8.811V8.48538C9.95625 8.0456 9.58962 7.683 9.1575 7.76475C8.90775 7.812 8.6535 7.89075 8.3925 7.99875Z" fill="#9097A7"/>
</g>
<defs>
<clipPath id="clip0_930_8612">
<rect width="18" height="18" rx="5" fill="white"/>
</clipPath>
</defs>
</svg>
