<svg width="42" height="42" viewBox="0 0 42 42" fill="none" xmlns="http://www.w3.org/2000/svg">
<circle cx="21" cy="21" r="21" fill="#30C37C"/>
<path fill-rule="evenodd" clip-rule="evenodd" d="M18.778 30H23.222C26.343 30 27.904 30 29.025 29.265C29.5088 28.9482 29.9254 28.5391 30.251 28.061C31 26.961 31 25.428 31 22.364C31 19.3 31 17.767 30.251 16.667C29.9254 16.189 29.5088 15.7799 29.025 15.463C28.305 14.99 27.403 14.821 26.022 14.761C25.363 14.761 24.796 14.271 24.667 13.636C24.5684 13.1709 24.3123 12.7541 23.9418 12.456C23.5714 12.1579 23.1095 11.9969 22.634 12H19.366C18.378 12 17.527 12.685 17.333 13.636C17.204 14.271 16.637 14.761 15.978 14.761C14.598 14.821 13.696 14.991 12.975 15.463C12.4915 15.78 12.0753 16.1891 11.75 16.667C11 17.767 11 19.299 11 22.364C11 25.429 11 26.96 11.749 28.061C12.073 28.537 12.489 28.946 12.975 29.265C14.096 30 15.657 30 18.778 30ZM21 18.273C18.699 18.273 16.833 20.104 16.833 22.363C16.833 24.622 18.7 26.456 21 26.456C23.3 26.456 25.167 24.624 25.167 22.365C25.167 20.106 23.3 18.273 21 18.273ZM21 19.909C19.62 19.909 18.5 21.008 18.5 22.364C18.5 23.719 19.62 24.818 21 24.818C22.38 24.818 23.5 23.719 23.5 22.364C23.5 21.009 22.38 19.909 21 19.909ZM25.722 19.091C25.722 18.639 26.095 18.273 26.556 18.273H27.666C28.126 18.273 28.5 18.639 28.5 19.091C28.4979 19.3099 28.409 19.5191 28.2528 19.6724C28.0966 19.8258 27.8859 19.9109 27.667 19.909H26.556C26.4475 19.9101 26.3399 19.8898 26.2393 19.8492C26.1387 19.8087 26.047 19.7487 25.9696 19.6728C25.8921 19.5968 25.8304 19.5064 25.7879 19.4065C25.7454 19.3067 25.723 19.1995 25.722 19.091Z" fill="#EBEBEB"/>
</svg>
