<svg width="20" height="20" viewBox="0 0 20 20" fill="none" xmlns="http://www.w3.org/2000/svg">
<mask id="mask0_110_7481" style="mask-type:alpha" maskUnits="userSpaceOnUse" x="0" y="0" width="20" height="20">
<rect width="20" height="20" fill="#D9D9D9"/>
</mask>
<g mask="url(#mask0_110_7481)">
<path d="M9.9987 13.3359C11.0404 13.3359 11.9258 12.9714 12.6549 12.2422C13.3841 11.513 13.7487 10.6276 13.7487 9.58594C13.7487 8.54427 13.3841 7.65885 12.6549 6.92969C11.9258 6.20052 11.0404 5.83594 9.9987 5.83594C8.95703 5.83594 8.07162 6.20052 7.34245 6.92969C6.61328 7.65885 6.2487 8.54427 6.2487 9.58594C6.2487 10.6276 6.61328 11.513 7.34245 12.2422C8.07162 12.9714 8.95703 13.3359 9.9987 13.3359ZM9.9987 11.8359C9.3737 11.8359 8.84245 11.6172 8.40495 11.1797C7.96745 10.7422 7.7487 10.2109 7.7487 9.58594C7.7487 8.96094 7.96745 8.42969 8.40495 7.99219C8.84245 7.55469 9.3737 7.33594 9.9987 7.33594C10.6237 7.33594 11.1549 7.55469 11.5924 7.99219C12.0299 8.42969 12.2487 8.96094 12.2487 9.58594C12.2487 10.2109 12.0299 10.7422 11.5924 11.1797C11.1549 11.6172 10.6237 11.8359 9.9987 11.8359ZM9.9987 15.8359C7.97092 15.8359 6.1237 15.27 4.45703 14.138C2.79036 13.0061 1.58203 11.4887 0.832031 9.58594C1.58203 7.68316 2.79036 6.1658 4.45703 5.03385C6.1237 3.90191 7.97092 3.33594 9.9987 3.33594C12.0265 3.33594 13.8737 3.90191 15.5404 5.03385C17.207 6.1658 18.4154 7.68316 19.1654 9.58594C18.4154 11.4887 17.207 13.0061 15.5404 14.138C13.8737 15.27 12.0265 15.8359 9.9987 15.8359ZM9.9987 14.1693C11.5681 14.1693 13.0091 13.7561 14.3216 12.9297C15.6341 12.1033 16.6376 10.9887 17.332 9.58594C16.6376 8.18316 15.6341 7.06858 14.3216 6.24219C13.0091 5.4158 11.5681 5.0026 9.9987 5.0026C8.42925 5.0026 6.98828 5.4158 5.67578 6.24219C4.36328 7.06858 3.35981 8.18316 2.66536 9.58594C3.35981 10.9887 4.36328 12.1033 5.67578 12.9297C6.98828 13.7561 8.42925 14.1693 9.9987 14.1693Z" fill="#8C8C8C"/>
</g>
</svg>
