<svg width="24" height="24" viewBox="0 0 24 24" fill="none" xmlns="http://www.w3.org/2000/svg">
<path d="M6 19H11V23L8.5 21.5L6 23V19ZM20 1H12V23L14.5 21.5L17 23V21H20C20.5304 21 21.0391 20.7893 21.4142 20.4142C21.7893 20.0391 22 19.5304 22 19V3C22 2.46957 21.7893 1.96086 21.4142 1.58579C21.0391 1.21071 20.5304 1 20 1ZM14 5H16V7H14V5ZM14 10H16V12H14V10ZM14 15H16V17H14V15ZM4 1C3.47005 1.00158 2.96227 1.2128 2.58753 1.58753C2.2128 1.96227 2.00158 2.47005 2 3V19C2.00158 19.5299 2.2128 20.0377 2.58753 20.4125C2.96227 20.7872 3.47005 20.9984 4 21V3H11V1H4Z" fill="#262D34"/>
<path d="M6 5H8V7H6V5ZM6 10H8V12H6V10ZM6 15H8V17H6V15Z" fill="#262D34"/>
</svg>
