<svg width="38" height="38" viewBox="0 0 38 38" fill="none" xmlns="http://www.w3.org/2000/svg">
<circle cx="19" cy="19" r="19" fill="#262D34"/>
<path d="M8.99536 23.7904C9.05925 23.6881 9.16148 23.6818 9.30203 23.7712C12.4654 25.6161 16.0668 26.576 19.7287 26.5504C22.2663 26.5447 24.781 26.0704 27.1462 25.1512C27.2101 25.1256 27.3027 25.0873 27.4241 25.0362C27.5455 24.9851 27.6318 24.9468 27.6829 24.9212C27.7586 24.8799 27.8471 24.8688 27.9307 24.8901C28.0143 24.9114 28.0867 24.9636 28.1333 25.0362C28.2419 25.1895 28.2068 25.3301 28.0279 25.4579C27.7979 25.624 27.504 25.8156 27.1462 26.0329C25.9957 26.7058 24.7571 27.2154 23.4662 27.547C22.1724 27.8964 20.8388 28.0768 19.4987 28.0837C17.565 28.0952 15.6465 27.7407 13.8445 27.0391C12.0893 26.3543 10.4724 25.3575 9.07203 24.097C9.03975 24.0757 9.01267 24.0474 8.99277 24.0143C8.97287 23.9811 8.96065 23.9439 8.95703 23.9054C8.95703 23.8639 8.97048 23.8235 8.99536 23.7904ZM14.7645 18.3279C14.7418 17.5246 14.9695 16.7342 15.4162 16.0662C15.8614 15.4316 16.4804 14.9391 17.1987 14.6479C18.0154 14.321 18.8731 14.1082 19.7479 14.0154C20.0929 13.977 20.6551 13.9259 21.4345 13.862V13.5362C21.483 12.973 21.3908 12.4066 21.1662 11.8879C21.0211 11.6929 20.829 11.5379 20.6078 11.4374C20.3866 11.3368 20.1435 11.294 19.9012 11.3129H19.7479C19.3531 11.3418 18.9745 11.4813 18.6554 11.7154C18.3456 11.9503 18.1339 12.2918 18.0612 12.6737C18.0533 12.7787 18.0117 12.8783 17.9426 12.9577C17.8736 13.0371 17.7807 13.0921 17.6779 13.1145L15.4737 12.8462C15.2565 12.7951 15.1479 12.6801 15.1479 12.5012C15.1489 12.4559 15.1554 12.4108 15.167 12.367C15.241 11.8565 15.4218 11.3674 15.6976 10.9314C15.9733 10.4955 16.3379 10.1226 16.7674 9.83703C17.6626 9.27335 18.6907 8.956 19.7479 8.91703H20.227C21.4673 8.84205 22.6888 9.24695 23.6387 10.0479C23.7665 10.1767 23.885 10.3144 23.9933 10.4599C24.0875 10.5855 24.1739 10.7167 24.252 10.8529C24.3322 11.0102 24.3903 11.1779 24.4245 11.3512C24.4756 11.5684 24.514 11.7186 24.5395 11.8016C24.5755 11.9783 24.5947 12.158 24.597 12.3383C24.6098 12.613 24.6162 12.7759 24.6162 12.827V17.4654C24.6131 17.7747 24.6617 18.0824 24.76 18.3758C24.8249 18.5856 24.9184 18.7856 25.0379 18.9699C25.1273 19.0913 25.2743 19.2862 25.4787 19.5545C25.546 19.6434 25.5859 19.75 25.5937 19.8612C25.5915 19.9149 25.5765 19.9674 25.5498 20.0141C25.5231 20.0608 25.4856 20.1004 25.4404 20.1295C24.3798 21.0495 23.8048 21.5479 23.7154 21.6245C23.6351 21.6812 23.5408 21.7147 23.4428 21.7215C23.3448 21.7282 23.2468 21.708 23.1595 21.6629C22.9806 21.5095 22.8241 21.3626 22.69 21.222C22.5558 21.0815 22.46 20.9793 22.4025 20.9154C22.3038 20.7954 22.2111 20.6706 22.1245 20.5416C21.9968 20.3563 21.9073 20.2318 21.8562 20.1679C21.3021 20.8395 20.5721 21.3438 19.7479 21.6245C19.2229 21.7641 18.6809 21.8287 18.1379 21.8162C17.6936 21.8327 17.2504 21.7607 16.8342 21.6044C16.4179 21.4481 16.0369 21.2107 15.7133 20.9058C15.3846 20.5656 15.1305 20.1607 14.9672 19.7168C14.8038 19.273 14.7348 18.7999 14.7645 18.3279ZM18.0612 17.9445C18.0399 18.3755 18.1724 18.8 18.435 19.1424C18.5569 19.2897 18.7111 19.4069 18.8855 19.485C19.06 19.5631 19.2502 19.6 19.4412 19.5929C19.496 19.5911 19.5505 19.5847 19.6041 19.5737C19.6515 19.5637 19.6995 19.5573 19.7479 19.5545C20.0177 19.4816 20.2686 19.3514 20.4836 19.1728C20.6986 18.9942 20.8726 18.7714 20.9937 18.5195C21.137 18.271 21.2435 18.0031 21.31 17.7241C21.3698 17.495 21.4083 17.2608 21.425 17.0245C21.4313 16.8456 21.4345 16.5518 21.4345 16.1429V15.6637C20.8682 15.6463 20.3018 15.6978 19.7479 15.817C19.2561 15.9059 18.8135 16.1709 18.5031 16.5625C18.1926 16.9541 18.0355 17.4454 18.0612 17.9445ZM26.1112 24.1162C26.1407 24.059 26.1796 24.0072 26.2262 23.9629C26.5052 23.764 26.8164 23.6148 27.1462 23.522C27.6093 23.3974 28.0852 23.3266 28.5645 23.3112C28.6862 23.2982 28.8091 23.3046 28.9287 23.3304C29.5037 23.3815 29.8487 23.4773 29.9637 23.6179C30.0215 23.7232 30.0481 23.8429 30.0404 23.9629V24.097C30.0179 24.6421 29.8944 25.1783 29.6762 25.6783C29.463 26.2429 29.1141 26.7465 28.6604 27.1445C28.6131 27.1888 28.5524 27.2158 28.4879 27.2212C28.4613 27.2202 28.4352 27.2137 28.4112 27.202C28.3345 27.1637 28.3154 27.0934 28.3537 26.9912C28.718 26.2632 28.9578 25.4793 29.0629 24.672C29.0727 24.5641 29.0457 24.456 28.9862 24.3654C28.8584 24.212 28.5006 24.1354 27.9129 24.1354C27.6956 24.1354 27.4401 24.1481 27.1462 24.1737C26.8268 24.212 26.5329 24.2504 26.2645 24.2887C26.2104 24.2953 26.1558 24.2817 26.1112 24.2504C26.0996 24.2418 26.0914 24.2294 26.0879 24.2155C26.0844 24.2015 26.0859 24.1867 26.092 24.1737C26.0953 24.1536 26.1018 24.1342 26.1112 24.1162Z" fill="white"/>
</svg>
