<svg width="24" height="24" viewBox="0 0 24 24" fill="none" xmlns="http://www.w3.org/2000/svg">
<path d="M18.0749 1.5542L22.2479 5.9042V22.4462H6.65918V22.5002H22.3012V5.95895L18.0749 1.5542Z" fill="#909090"/>
<path d="M18.0232 1.5H6.60596V22.446H22.248V5.90475L18.0232 1.5Z" fill="#F4F4F4"/>
<path d="M6.49123 2.625H1.69873V7.74525H16.7737V2.625H6.49123Z" fill="#7A7B7C"/>
<path d="M16.8541 7.65818H1.79639V2.53418H16.8541V7.65818Z" fill="#DD2025"/>
<path d="M6.78884 3.4005H5.80859V7.0005H6.57959V5.78625L6.74984 5.796C6.91533 5.79372 7.07929 5.76407 7.23509 5.70825C7.37206 5.66175 7.49794 5.58744 7.60484 5.49C7.71447 5.39808 7.8006 5.28136 7.85609 5.1495C7.93203 4.93104 7.95891 4.69853 7.93484 4.4685C7.93057 4.30414 7.90175 4.14134 7.84934 3.9855C7.80212 3.87286 7.7319 3.77131 7.64317 3.68737C7.55445 3.60342 7.44918 3.53892 7.33409 3.498C7.23488 3.46126 7.13206 3.43511 7.02734 3.42C6.94824 3.40712 6.86824 3.4006 6.78809 3.4005M6.64634 5.121H6.57959V4.011H6.72434C6.78823 4.00639 6.85233 4.0162 6.91192 4.0397C6.9715 4.06319 7.02505 4.09978 7.06859 4.14675C7.15883 4.26751 7.20704 4.4145 7.20584 4.56525C7.20584 4.74975 7.20584 4.917 7.03934 5.03475C6.91942 5.10081 6.78287 5.13126 6.64634 5.121ZM9.39959 3.39075C9.31634 3.39075 9.23534 3.39675 9.17834 3.399L8.99984 3.4035H8.41484V7.0035H9.10334C9.36643 7.01027 9.62831 6.96569 9.87434 6.87225C10.0724 6.79402 10.2478 6.66742 10.3843 6.504C10.5182 6.33987 10.6137 6.14796 10.6641 5.94225C10.7232 5.7097 10.752 5.47045 10.7496 5.2305C10.7643 4.94712 10.7423 4.66302 10.6843 4.38525C10.6288 4.18102 10.5261 3.9927 10.3843 3.8355C10.2732 3.70838 10.1365 3.60616 9.98309 3.5355C9.85171 3.4746 9.71346 3.42978 9.57134 3.402C9.51483 3.39274 9.45761 3.38847 9.40034 3.38925M9.26384 6.342H9.18884V4.044H9.19859C9.35322 4.02612 9.50968 4.05403 9.64859 4.12425C9.75034 4.2055 9.83325 4.30785 9.89159 4.42425C9.95456 4.54675 9.99086 4.6812 9.99809 4.81875C10.0048 4.98375 9.99809 5.11875 9.99809 5.2305C10.0009 5.35922 9.99259 5.48794 9.97334 5.61525C9.94975 5.7458 9.90704 5.87216 9.84659 5.99025C9.77831 6.10038 9.68504 6.19288 9.57434 6.26025C9.48188 6.32025 9.37225 6.34819 9.26234 6.33975M13.0723 3.4035H11.2498V7.0035H12.0208V5.5755H12.9958V4.9065H12.0208V4.0725H13.0708V3.4035" fill="#464648"/>
<path d="M16.3355 15.1911C16.3355 15.1911 18.7265 14.7576 18.7265 15.5744C18.7265 16.3911 17.2453 16.0589 16.3355 15.1911ZM14.5678 15.2534C14.1878 15.3371 13.8176 15.46 13.463 15.6201L13.763 14.9451C14.063 14.2701 14.3743 13.3499 14.3743 13.3499C14.7314 13.953 15.1479 14.5188 15.6178 15.0389C15.2641 15.0916 14.9135 15.1637 14.5678 15.2549V15.2534ZM13.6213 10.3784C13.6213 9.66664 13.8515 9.47239 14.0308 9.47239C14.21 9.47239 14.4118 9.55864 14.4185 10.1766C14.36 10.798 14.2299 11.4106 14.0308 12.0021C13.757 11.5058 13.6158 10.9474 13.6205 10.3806L13.6213 10.3784ZM10.1345 18.2654C9.40102 17.8266 11.6728 16.4759 12.0845 16.4324C12.0823 16.4331 10.9025 18.7244 10.1345 18.2654ZM19.4248 15.6711C19.4173 15.5961 19.3498 14.7659 17.8723 14.8011C17.2564 14.7903 16.6408 14.8338 16.0325 14.9309C15.4429 14.3374 14.9354 13.6677 14.5235 12.9396C14.7829 12.1891 14.94 11.4071 14.9908 10.6146C14.969 9.71464 14.7538 9.19864 14.0638 9.20614C13.3738 9.21364 13.2733 9.81739 13.364 10.7159C13.4528 11.3197 13.6205 11.9092 13.8628 12.4694C13.8628 12.4694 13.544 13.4616 13.1225 14.4486C12.701 15.4356 12.413 15.9531 12.413 15.9531C11.68 16.1915 10.9899 16.546 10.3693 17.0031C9.75127 17.5784 9.50002 18.0201 9.82552 18.4619C10.106 18.8429 11.0878 18.9291 11.9653 17.7794C12.4307 17.185 12.8566 16.5606 13.2403 15.9104C13.2403 15.9104 14.5783 15.5436 14.9945 15.4431C15.4108 15.3426 15.914 15.2631 15.914 15.2631C15.914 15.2631 17.1358 16.4924 18.314 16.4489C19.4923 16.4054 19.4353 15.7446 19.4278 15.6726" fill="#DD2025"/>
<path d="M17.9653 1.55762V5.96237H22.1901L17.9653 1.55762Z" fill="#909090"/>
<path d="M18.0234 1.5V5.90475H22.2482L18.0234 1.5Z" fill="#F4F4F4"/>
<path d="M6.73123 3.34288H5.75098V6.94288H6.52498V5.72938L6.69598 5.73913C6.86146 5.73685 7.02542 5.7072 7.18123 5.65138C7.31819 5.60488 7.44407 5.53058 7.55098 5.43313C7.65978 5.34096 7.74512 5.22426 7.79998 5.09263C7.87591 4.87417 7.9028 4.64166 7.87873 4.41163C7.87445 4.24727 7.84563 4.08447 7.79323 3.92863C7.746 3.81599 7.67578 3.71445 7.58706 3.6305C7.49833 3.54656 7.39306 3.48206 7.27798 3.44113C7.17831 3.40403 7.07498 3.37763 6.96973 3.36238C6.89063 3.3495 6.81062 3.34298 6.73048 3.34288M6.58873 5.06338H6.52198V3.95338H6.66748C6.73136 3.94878 6.79547 3.95858 6.85505 3.98208C6.91464 4.00558 6.96818 4.04216 7.01173 4.08913C7.10197 4.20989 7.15017 4.35689 7.14898 4.50763C7.14898 4.69213 7.14898 4.85938 6.98248 4.97713C6.86256 5.04319 6.726 5.0729 6.58948 5.06263M9.34198 3.33313C9.25873 3.33313 9.17773 3.33913 9.12073 3.34138L8.94448 3.34588H8.35948V6.94588H9.04798C9.31106 6.95265 9.57295 6.90807 9.81898 6.81463C10.0171 6.73641 10.1924 6.6098 10.329 6.44638C10.4628 6.28225 10.5584 6.09035 10.6087 5.88463C10.6679 5.65208 10.6966 5.41283 10.6942 5.17288C10.7089 4.8895 10.687 4.60541 10.629 4.32763C10.5735 4.1234 10.4707 3.93508 10.329 3.77788C10.2178 3.65077 10.0811 3.54854 9.92773 3.47788C9.79635 3.41698 9.6581 3.37216 9.51598 3.34438C9.45946 3.33512 9.40224 3.33085 9.34498 3.33163M9.20848 6.28438H9.13348V3.98638H9.14323C9.29785 3.9685 9.45432 3.99641 9.59323 4.06663C9.69497 4.14788 9.77788 4.25023 9.83623 4.36663C9.89919 4.48913 9.93549 4.62359 9.94273 4.76113C9.94948 4.92613 9.94273 5.06113 9.94273 5.17288C9.9455 5.30161 9.93722 5.43033 9.91798 5.55763C9.89438 5.68818 9.85167 5.81454 9.79123 5.93263C9.72294 6.04277 9.62967 6.13526 9.51898 6.20263C9.42651 6.26264 9.31688 6.29057 9.20698 6.28213M13.0147 3.34588H11.1922V6.94588H11.9632V5.51788H12.9382V4.84888H11.9632V4.01488H13.0132V3.34588" fill="white"/>
</svg>
