<svg width="20" height="20" viewBox="0 0 20 20" fill="none" xmlns="http://www.w3.org/2000/svg">
<path d="M8 10C8 8.89733 8.89613 8 10 8C11.1039 8 12 8.89733 12 10C12 11.1027 11.1039 12 10 12C8.89613 12 8 11.1027 8 10Z" fill="white"/>
<path fill-rule="evenodd" clip-rule="evenodd" d="M7.424 0H12.5707L12.7893 1.116V1.12L13.1493 2.9C13.66 3.12933 14.136 3.41467 14.5733 3.736L16.3667 3.12533L17.428 2.79067L17.984 3.76L19.4333 6.232L20 7.22267L19.156 7.97333L17.8107 9.13867C17.8533 9.40133 17.892 9.696 17.892 10C17.892 10.304 17.852 10.6 17.812 10.8613L19.1613 12.032L20 12.7773L19.4293 13.7747L17.984 16.24L17.428 17.2133L16.352 16.8693L14.5733 16.264C14.1288 16.591 13.6516 16.8712 13.1493 17.1L12.7893 18.88V18.884L12.5733 20H7.42667L7.20933 18.8813L6.84933 17.1C6.3471 16.8712 5.86989 16.591 5.42533 16.264L3.63467 16.8733L2.56933 17.2133L2.016 16.24L0.565333 13.7667L0 12.7773L0.842667 12.0267L2.18667 10.86C2.13679 10.576 2.11004 10.2884 2.10667 10C2.10667 9.69733 2.14667 9.4 2.188 9.14L0.836 7.96667L0 7.224L0.568 6.22667L2.01467 3.76L2.568 2.78933L3.64533 3.13067L5.424 3.736C5.86856 3.40896 6.34577 3.1288 6.848 2.9L7.208 1.11733L7.424 0ZM10 6.66667C8.192 6.66667 6.72667 8.16 6.72667 10C6.72667 11.84 8.19333 13.3333 9.99867 13.3333C11.804 13.3333 13.2707 11.84 13.2707 10C13.2707 8.16 11.804 6.66667 10 6.66667Z" fill="white"/>
</svg>
