<svg width="30" height="30" viewBox="0 0 30 30" fill="none" xmlns="http://www.w3.org/2000/svg">
<mask id="mask0_132_24771" style="mask-type:alpha" maskUnits="userSpaceOnUse" x="0" y="0" width="30" height="30">
<rect width="30" height="30" fill="#D9D9D9"/>
</mask>
<g mask="url(#mask0_132_24771)">
<path d="M4.99854 25.0015C4.31104 25.0015 3.72249 24.7567 3.23291 24.2671C2.74333 23.7775 2.49854 23.189 2.49854 22.5015V7.50146C2.49854 6.81396 2.74333 6.22542 3.23291 5.73584C3.72249 5.24626 4.31104 5.00146 4.99854 5.00146H24.9985C25.686 5.00146 26.2746 5.24626 26.7642 5.73584C27.2537 6.22542 27.4985 6.81396 27.4985 7.50146V22.5015C27.4985 23.189 27.2537 23.7775 26.7642 24.2671C26.2746 24.7567 25.686 25.0015 24.9985 25.0015H4.99854ZM4.99854 15.0015H24.9985V10.0015H4.99854V15.0015Z" fill="#9097A7"/>
</g>
</svg>
