<svg width="56" height="56" viewBox="0 0 56 56" fill="none" xmlns="http://www.w3.org/2000/svg">
<rect width="56" height="56" rx="12" fill="#30C37C" fill-opacity="0.16"/>
<path d="M32.9583 21.6248C32.9583 22.276 32.8301 22.9207 32.5809 23.5223C32.3317 24.1239 31.9665 24.6705 31.5061 25.1309C31.0457 25.5913 30.499 25.9566 29.8975 26.2057C29.2959 26.4549 28.6511 26.5832 28 26.5832C27.3489 26.5832 26.7041 26.4549 26.1025 26.2057C25.501 25.9566 24.9544 25.5913 24.4939 25.1309C24.0335 24.6705 23.6683 24.1239 23.4191 23.5223C23.1699 22.9207 23.0417 22.276 23.0417 21.6248C23.0417 20.3098 23.5641 19.0486 24.4939 18.1188C25.4238 17.1889 26.685 16.6665 28 16.6665C29.315 16.6665 30.5762 17.1889 31.5061 18.1188C32.4359 19.0486 32.9583 20.3098 32.9583 21.6248ZM36.5 34.3748C36.5 37.1133 32.6948 39.3332 28 39.3332C23.3052 39.3332 19.5 37.1133 19.5 34.3748C19.5 31.6364 23.3052 29.4165 28 29.4165C32.6948 29.4165 36.5 31.6364 36.5 34.3748ZM21.0895 18.0832C21.3417 18.0832 21.5863 18.1068 21.8233 18.154C21.2283 19.214 20.9161 20.4093 20.9167 21.6248C20.9167 22.8545 21.2298 24.0119 21.7808 25.0192C21.557 25.0617 21.3266 25.0829 21.0895 25.0829C19.0863 25.0829 17.4614 23.5161 17.4614 21.5838C17.4614 19.6514 19.0863 18.0832 21.0895 18.0832ZM18.7166 37.8967C17.9133 36.9348 17.375 35.7547 17.375 34.3748C17.375 33.0375 17.8808 31.8872 18.6443 30.9423C15.9442 31.1519 13.8333 32.6281 13.8333 34.4159C13.8333 36.2222 15.9824 37.7097 18.7166 37.8967ZM35.0833 21.6248C35.0833 22.8545 34.7703 24.0119 34.2192 25.0192C34.4421 25.0617 34.6725 25.0829 34.9105 25.0829C36.9137 25.0829 38.5372 23.5161 38.5372 21.5838C38.5372 19.6514 36.9151 18.0832 34.9119 18.0832C34.6598 18.0832 34.4151 18.1068 34.1781 18.154C34.7547 19.1797 35.0833 20.364 35.0833 21.6248ZM37.2834 37.8967C40.0176 37.7097 42.1667 36.2222 42.1667 34.4159C42.1667 32.6267 40.0544 31.1519 37.3557 30.9423C38.1207 31.8872 38.625 33.0375 38.625 34.3748C38.625 35.7547 38.0867 36.9348 37.2834 37.8967Z" fill="#30C37C"/>
</svg>
