<svg width="56" height="56" viewBox="0 0 56 56" fill="none" xmlns="http://www.w3.org/2000/svg">
<rect width="56" height="56" rx="12" fill="#30C37C" fill-opacity="0.16"/>
<path d="M19.5 37.9165H26.5833V43.5832L23.0416 41.4582L19.5 43.5832V37.9165ZM39.3333 12.4165H28V43.5832L31.5416 41.4582L35.0833 43.5832V40.7498H39.3333C40.0848 40.7498 40.8054 40.4513 41.3368 39.92C41.8681 39.3886 42.1666 38.668 42.1666 37.9165V15.2498C42.1666 14.4984 41.8681 13.7777 41.3368 13.2464C40.8054 12.715 40.0848 12.4165 39.3333 12.4165ZM30.8333 18.0832H33.6666V20.9165H30.8333V18.0832ZM30.8333 25.1665H33.6666V27.9998H30.8333V25.1665ZM30.8333 32.2498H33.6666V35.0832H30.8333V32.2498ZM16.6666 12.4165C15.9159 12.4187 15.1965 12.718 14.6657 13.2488C14.1348 13.7797 13.8356 14.4991 13.8333 15.2498V37.9165C13.8356 38.6673 14.1348 39.3866 14.6657 39.9175C15.1965 40.4484 15.9159 40.7476 16.6666 40.7498V15.2498H26.5833V12.4165H16.6666Z" fill="#30C37C"/>
<path d="M19.5 18.0835H22.3333V20.9168H19.5V18.0835ZM19.5 25.1668H22.3333V28.0002H19.5V25.1668ZM19.5 32.2502H22.3333V35.0835H19.5V32.2502Z" fill="#30C37C"/>
</svg>
