<svg width="56" height="56" viewBox="0 0 56 56" fill="none" xmlns="http://www.w3.org/2000/svg">
<rect width="56" height="56" rx="12" fill="#30C37C" fill-opacity="0.16"/>
<path d="M20.9166 14.8335H15.25C14.8743 14.8335 14.5139 14.9828 14.2482 15.2484C13.9826 15.5141 13.8333 15.8744 13.8333 16.2502V41.7502C13.8333 42.1259 13.9826 42.4862 14.2482 42.7519C14.5139 43.0176 14.8743 43.1668 15.25 43.1668H20.9166C21.2924 43.1668 21.6527 43.0176 21.9184 42.7519C22.1841 42.4862 22.3333 42.1259 22.3333 41.7502V16.2502C22.3333 15.8744 22.1841 15.5141 21.9184 15.2484C21.6527 14.9828 21.2924 14.8335 20.9166 14.8335ZM18.0833 41.7502C17.5229 41.7502 16.9751 41.584 16.5092 41.2727C16.0433 40.9613 15.6801 40.5188 15.4657 40.0011C15.2512 39.4834 15.1951 38.9137 15.3044 38.3641C15.4137 37.8145 15.6836 37.3096 16.0798 36.9134C16.4761 36.5171 16.9809 36.2473 17.5306 36.1379C18.0802 36.0286 18.6499 36.0847 19.1676 36.2992C19.6853 36.5136 20.1278 36.8768 20.4391 37.3427C20.7505 37.8086 20.9166 38.3564 20.9166 38.9168C20.9166 39.6683 20.6181 40.3889 20.0868 40.9203C19.5554 41.4516 18.8348 41.7502 18.0833 41.7502ZM20.9166 29.0002H15.25V16.2502H20.9166V29.0002ZM19.5 38.9168C19.5 39.197 19.4169 39.4709 19.2612 39.7039C19.1056 39.9369 18.8843 40.1184 18.6254 40.2257C18.3666 40.3329 18.0817 40.3609 17.8069 40.3063C17.5321 40.2516 17.2797 40.1167 17.0816 39.9186C16.8835 39.7204 16.7485 39.468 16.6939 39.1932C16.6392 38.9184 16.6673 38.6336 16.7745 38.3747C16.8817 38.1158 17.0633 37.8946 17.2963 37.7389C17.5292 37.5832 17.8031 37.5002 18.0833 37.5002C18.459 37.5002 18.8194 37.6494 19.085 37.9151C19.3507 38.1808 19.5 38.5411 19.5 38.9168ZM30.8333 14.8335H25.1666C24.7909 14.8335 24.4306 14.9828 24.1649 15.2484C23.8992 15.5141 23.75 15.8744 23.75 16.2502V41.7502C23.75 42.1259 23.8992 42.4862 24.1649 42.7519C24.4306 43.0176 24.7909 43.1668 25.1666 43.1668H30.8333C31.209 43.1668 31.5694 43.0176 31.835 42.7519C32.1007 42.4862 32.25 42.1259 32.25 41.7502V16.2502C32.25 15.8744 32.1007 15.5141 31.835 15.2484C31.5694 14.9828 31.209 14.8335 30.8333 14.8335ZM28 41.7502C27.4396 41.7502 26.8918 41.584 26.4259 41.2727C25.9599 40.9613 25.5968 40.5188 25.3823 40.0011C25.1679 39.4834 25.1118 38.9137 25.2211 38.3641C25.3304 37.8145 25.6003 37.3096 25.9965 36.9134C26.3928 36.5171 26.8976 36.2473 27.4472 36.1379C27.9968 36.0286 28.5665 36.0847 29.0842 36.2992C29.602 36.5136 30.0445 36.8768 30.3558 37.3427C30.6671 37.8086 30.8333 38.3564 30.8333 38.9168C30.8333 39.6683 30.5348 40.3889 30.0034 40.9203C29.4721 41.4516 28.7514 41.7502 28 41.7502ZM30.8333 29.0002H25.1666V16.2502H30.8333V29.0002ZM29.4166 38.9168C29.4166 39.197 29.3336 39.4709 29.1779 39.7039C29.0222 39.9369 28.801 40.1184 28.5421 40.2257C28.2833 40.3329 27.9984 40.3609 27.7236 40.3063C27.4488 40.2516 27.1964 40.1167 26.9982 39.9186C26.8001 39.7204 26.6652 39.468 26.6105 39.1932C26.5559 38.9184 26.5839 38.6336 26.6911 38.3747C26.7984 38.1158 26.9799 37.8946 27.2129 37.7389C27.4459 37.5832 27.7198 37.5002 28 37.5002C28.3757 37.5002 28.736 37.6494 29.0017 37.9151C29.2674 38.1808 29.4166 38.5411 29.4166 38.9168ZM40.75 14.8335H35.0833C34.7076 14.8335 34.3473 14.9828 34.0816 15.2484C33.8159 15.5141 33.6666 15.8744 33.6666 16.2502V41.7502C33.6666 42.1259 33.8159 42.4862 34.0816 42.7519C34.3473 43.0176 34.7076 43.1668 35.0833 43.1668H40.75C41.1257 43.1668 41.486 43.0176 41.7517 42.7519C42.0174 42.4862 42.1666 42.1259 42.1666 41.7502V16.2502C42.1666 15.8744 42.0174 15.5141 41.7517 15.2484C41.486 14.9828 41.1257 14.8335 40.75 14.8335ZM37.9166 41.7502C37.3563 41.7502 36.8085 41.584 36.3425 41.2727C35.8766 40.9613 35.5134 40.5188 35.299 40.0011C35.0845 39.4834 35.0284 38.9137 35.1378 38.3641C35.2471 37.8145 35.5169 37.3096 35.9132 36.9134C36.3094 36.5171 36.8143 36.2473 37.3639 36.1379C37.9135 36.0286 38.4832 36.0847 39.0009 36.2992C39.5186 36.5136 39.9611 36.8768 40.2725 37.3427C40.5838 37.8086 40.75 38.3564 40.75 38.9168C40.75 39.6683 40.4515 40.3889 39.9201 40.9203C39.3888 41.4516 38.6681 41.7502 37.9166 41.7502ZM40.75 29.0002H35.0833V16.2502H40.75V29.0002ZM39.3333 38.9168C39.3333 39.197 39.2502 39.4709 39.0946 39.7039C38.9389 39.9369 38.7176 40.1184 38.4588 40.2257C38.1999 40.3329 37.9151 40.3609 37.6403 40.3063C37.3655 40.2516 37.113 40.1167 36.9149 39.9186C36.7168 39.7204 36.5819 39.468 36.5272 39.1932C36.4725 38.9184 36.5006 38.6336 36.6078 38.3747C36.715 38.1158 36.8966 37.8946 37.1296 37.7389C37.3626 37.5832 37.6365 37.5002 37.9166 37.5002C38.2924 37.5002 38.6527 37.6494 38.9184 37.9151C39.1841 38.1808 39.3333 38.5411 39.3333 38.9168Z" fill="#30C37C"/>
</svg>
