<svg width="56" height="56" viewBox="0 0 56 56" fill="none" xmlns="http://www.w3.org/2000/svg">
<rect width="56" height="56" rx="12" fill="#30C37C" fill-opacity="0.16"/>
<path d="M42.1667 30.094V36.5002C42.1667 37.6273 41.7189 38.7083 40.9219 39.5054C40.1248 40.3024 39.0438 40.7502 37.9167 40.7502H18.0833C16.9562 40.7502 15.8752 40.3024 15.0781 39.5054C14.2811 38.7083 13.8333 37.6273 13.8333 36.5002V30.094L14.6167 30.4864C18.7689 32.5777 23.3534 33.6668 28.0025 33.6663C32.6515 33.6658 37.2358 32.5758 41.3875 30.4836L42.1667 30.094ZM30.8333 13.8335C31.9605 13.8335 33.0415 14.2813 33.8385 15.0783C34.6356 15.8753 35.0833 16.9563 35.0833 18.0835V19.5002H37.9167C39.0438 19.5002 40.1248 19.9479 40.9219 20.745C41.7189 21.542 42.1667 22.623 42.1667 23.7502V26.9263L40.1167 27.952C36.449 29.8009 32.4068 30.7859 28.2997 30.8316C24.1926 30.8773 20.1295 29.9824 16.4216 28.2155L15.505 27.7622L13.8333 26.9263V23.7502C13.8333 22.623 14.2811 21.542 15.0781 20.745C15.8752 19.9479 16.9562 19.5002 18.0833 19.5002H20.9167V18.0835C20.9167 16.9563 21.3644 15.8753 22.1615 15.0783C22.9585 14.2813 24.0395 13.8335 25.1667 13.8335H30.8333ZM28 25.1668C27.6243 25.1668 27.2639 25.3161 26.9983 25.5818C26.7326 25.8474 26.5833 26.2078 26.5833 26.5835C26.5824 26.7695 26.6181 26.9539 26.6885 27.1262C26.7588 27.2984 26.8624 27.4551 26.9933 27.5873C27.1241 27.7195 27.2798 27.8246 27.4513 27.8967C27.6228 27.9688 27.8069 28.0063 27.9929 28.0072C28.1789 28.0082 28.3633 27.9725 28.5356 27.9021C28.7078 27.8318 28.8645 27.7282 28.9967 27.5973C29.1289 27.4664 29.2341 27.3108 29.3061 27.1393C29.3782 26.9677 29.4157 26.7837 29.4167 26.5977C29.4167 25.8015 28.782 25.1668 28 25.1668ZM30.8333 16.6668H25.1667C24.7909 16.6668 24.4306 16.8161 24.1649 17.0818C23.8993 17.3474 23.75 17.7078 23.75 18.0835V19.5002H32.25V18.0835C32.25 17.7078 32.1007 17.3474 31.8351 17.0818C31.5694 16.8161 31.209 16.6668 30.8333 16.6668Z" fill="#30C37C"/>
</svg>
