<svg width="56" height="56" viewBox="0 0 56 56" fill="none" xmlns="http://www.w3.org/2000/svg">
<rect width="56" height="56" rx="12" fill="#30C37C" fill-opacity="0.16"/>
<path d="M35.9022 17.2788L33.0688 15.7913C30.5812 14.4866 29.3373 13.8335 28 13.8335C26.6627 13.8335 25.4188 14.4852 22.9312 15.7913L22.4764 16.0307L35.1173 23.2543L40.8067 20.4068C39.8915 19.3698 38.4153 18.5949 35.9022 17.276M41.8097 22.2825L36.1458 25.1158V29.4168C36.1458 29.6986 36.0339 29.9689 35.8346 30.1681C35.6354 30.3674 35.3651 30.4793 35.0833 30.4793C34.8015 30.4793 34.5313 30.3674 34.332 30.1681C34.1328 29.9689 34.0208 29.6986 34.0208 29.4168V26.1783L29.0625 28.6575V42.0308C30.0797 41.7772 31.2371 41.1709 33.0688 40.209L35.9022 38.7215C38.9494 37.1221 40.4738 36.3231 41.3209 34.8852C42.1667 33.4487 42.1667 31.6594 42.1667 28.0852V27.9194C42.1667 25.2377 42.1667 23.5603 41.8097 22.2825ZM26.9375 42.0308V28.6575L14.1903 22.2825C13.8333 23.5603 13.8333 25.2377 13.8333 27.9166V28.0823C13.8333 31.6594 13.8333 33.4487 14.6791 34.8852C15.5263 36.3231 17.0506 37.1235 20.0978 38.7229L22.9312 40.209C24.7629 41.1709 25.9203 41.7772 26.9375 42.0308ZM15.1933 20.4082L28 26.8116L32.8323 24.3962L20.2438 17.2023L20.0978 17.2788C17.5861 18.5963 16.1085 19.3712 15.1933 20.4097" fill="#30C37C"/>
</svg>
