<svg width="18" height="18" viewBox="0 0 18 18" fill="none" xmlns="http://www.w3.org/2000/svg">
<path d="M12.9375 1.125H5.0625C4.31658 1.125 3.60121 1.42132 3.07376 1.94876C2.54632 2.47621 2.25 3.19158 2.25 3.9375V14.0625C2.25 14.8084 2.54632 15.5238 3.07376 16.0512C3.60121 16.5787 4.31658 16.875 5.0625 16.875H12.9375C13.6834 16.875 14.3988 16.5787 14.9262 16.0512C15.4537 15.5238 15.75 14.8084 15.75 14.0625V3.9375C15.75 3.19158 15.4537 2.47621 14.9262 1.94876C14.3988 1.42132 13.6834 1.125 12.9375 1.125ZM6.1875 3.375H11.8125C12.2601 3.375 12.6893 3.55279 13.0057 3.86926C13.3222 4.18572 13.5 4.61495 13.5 5.0625V6.1875C13.5 6.63505 13.3222 7.06428 13.0057 7.38074C12.6893 7.69721 12.2601 7.875 11.8125 7.875H6.1875C5.73995 7.875 5.31072 7.69721 4.99426 7.38074C4.67779 7.06428 4.5 6.63505 4.5 6.1875V5.0625C4.5 4.61495 4.67779 4.18572 4.99426 3.86926C5.31072 3.55279 5.73995 3.375 6.1875 3.375ZM6.75 10.125C6.75 10.4234 6.63147 10.7095 6.4205 10.9205C6.20952 11.1315 5.92337 11.25 5.625 11.25C5.32663 11.25 5.04048 11.1315 4.8295 10.9205C4.61853 10.7095 4.5 10.4234 4.5 10.125C4.5 9.82663 4.61853 9.54048 4.8295 9.3295C5.04048 9.11853 5.32663 9 5.625 9C5.92337 9 6.20952 9.11853 6.4205 9.3295C6.63147 9.54048 6.75 9.82663 6.75 10.125ZM6.75 13.5C6.75 13.7984 6.63147 14.0845 6.4205 14.2955C6.20952 14.5065 5.92337 14.625 5.625 14.625C5.32663 14.625 5.04048 14.5065 4.8295 14.2955C4.61853 14.0845 4.5 13.7984 4.5 13.5C4.5 13.2016 4.61853 12.9155 4.8295 12.7045C5.04048 12.4935 5.32663 12.375 5.625 12.375C5.92337 12.375 6.20952 12.4935 6.4205 12.7045C6.63147 12.9155 6.75 13.2016 6.75 13.5ZM12.375 11.25C12.0766 11.25 11.7905 11.1315 11.5795 10.9205C11.3685 10.7095 11.25 10.4234 11.25 10.125C11.25 9.82663 11.3685 9.54048 11.5795 9.3295C11.7905 9.11853 12.0766 9 12.375 9C12.6734 9 12.9595 9.11853 13.1705 9.3295C13.3815 9.54048 13.5 9.82663 13.5 10.125C13.5 10.4234 13.3815 10.7095 13.1705 10.9205C12.9595 11.1315 12.6734 11.25 12.375 11.25ZM13.5 13.5C13.5 13.7984 13.3815 14.0845 13.1705 14.2955C12.9595 14.5065 12.6734 14.625 12.375 14.625C12.0766 14.625 11.7905 14.5065 11.5795 14.2955C11.3685 14.0845 11.25 13.7984 11.25 13.5C11.25 13.2016 11.3685 12.9155 11.5795 12.7045C11.7905 12.4935 12.0766 12.375 12.375 12.375C12.6734 12.375 12.9595 12.4935 13.1705 12.7045C13.3815 12.9155 13.5 13.2016 13.5 13.5ZM9 11.25C8.70163 11.25 8.41548 11.1315 8.2045 10.9205C7.99353 10.7095 7.875 10.4234 7.875 10.125C7.875 9.82663 7.99353 9.54048 8.2045 9.3295C8.41548 9.11853 8.70163 9 9 9C9.29837 9 9.58452 9.11853 9.7955 9.3295C10.0065 9.54048 10.125 9.82663 10.125 10.125C10.125 10.4234 10.0065 10.7095 9.7955 10.9205C9.58452 11.1315 9.29837 11.25 9 11.25ZM10.125 13.5C10.125 13.7984 10.0065 14.0845 9.7955 14.2955C9.58452 14.5065 9.29837 14.625 9 14.625C8.70163 14.625 8.41548 14.5065 8.2045 14.2955C7.99353 14.0845 7.875 13.7984 7.875 13.5C7.875 13.2016 7.99353 12.9155 8.2045 12.7045C8.41548 12.4935 8.70163 12.375 9 12.375C9.29837 12.375 9.58452 12.4935 9.7955 12.7045C10.0065 12.9155 10.125 13.2016 10.125 13.5Z" fill="#262D34"/>
</svg>
