<svg width="22" height="22" viewBox="0 0 22 22" fill="none" xmlns="http://www.w3.org/2000/svg">
<path d="M6.30762 17.3252C5.93178 17.3252 5.62012 17.0136 5.62012 16.6377V14.7402C5.62012 14.3644 5.93178 14.0527 6.30762 14.0527C6.68345 14.0527 6.99512 14.3644 6.99512 14.7402V16.6377C6.99512 17.0227 6.68345 17.3252 6.30762 17.3252Z" fill="#5B6B79"/>
<path d="M11 17.3247C10.6242 17.3247 10.3125 17.013 10.3125 16.6372V12.833C10.3125 12.4572 10.6242 12.1455 11 12.1455C11.3758 12.1455 11.6875 12.4572 11.6875 12.833V16.6372C11.6875 17.0222 11.3758 17.3247 11 17.3247Z" fill="#5B6B79"/>
<path d="M15.6924 17.3247C15.3165 17.3247 15.0049 17.013 15.0049 16.6372V10.9355C15.0049 10.5597 15.3165 10.248 15.6924 10.248C16.0682 10.248 16.3799 10.5597 16.3799 10.9355V16.6372C16.3799 17.0222 16.0774 17.3247 15.6924 17.3247Z" fill="#5B6B79"/>
<path d="M16.3817 5.3348C16.3817 5.28897 16.3634 5.23397 16.3542 5.18814C16.3451 5.15147 16.3359 5.10564 16.3267 5.06897C16.3084 5.0323 16.2809 5.0048 16.2626 4.96814C16.2351 4.93147 16.2076 4.88564 16.1709 4.85814C16.1617 4.84897 16.1617 4.8398 16.1526 4.8398C16.1251 4.82147 16.0976 4.8123 16.0701 4.79397C16.0334 4.76647 15.9876 4.73897 15.9417 4.72064C15.8959 4.7023 15.8501 4.7023 15.8042 4.69314C15.7676 4.68397 15.7401 4.6748 15.7034 4.6748H13.0176C12.6417 4.6748 12.3301 4.98647 12.3301 5.3623C12.3301 5.73814 12.6417 6.0498 13.0176 6.0498H14.1634C11.9817 8.34147 9.23175 9.9548 6.14254 10.734C5.77588 10.8256 5.54671 11.2015 5.63838 11.5681C5.71171 11.8798 5.99588 12.0906 6.30754 12.0906C6.36254 12.0906 6.41754 12.0815 6.47254 12.0723C9.74508 11.2565 12.6692 9.56064 15.0067 7.15897V8.04814C15.0067 8.42397 15.3184 8.73564 15.6942 8.73564C16.0701 8.73564 16.3817 8.42397 16.3817 8.04814V5.3623C16.3817 5.35314 16.3817 5.34397 16.3817 5.3348Z" fill="#5B6B79"/>
</svg>
