<svg width="20" height="20" viewBox="0 0 20 20" fill="none" xmlns="http://www.w3.org/2000/svg">
<path d="M17.5667 7.15034V12.8503C17.5654 13.3106 17.4441 13.7626 17.2146 14.1615C16.9851 14.5605 16.6556 14.8927 16.2584 15.1253L11.3084 17.9837C10.909 18.213 10.4565 18.3337 9.99588 18.3337C9.53532 18.3337 9.08279 18.213 8.68338 17.9837L3.73339 15.1253C3.33486 14.8943 3.00416 14.5624 2.77451 14.1631C2.54486 13.7637 2.42433 13.311 2.42505 12.8503V7.15034C2.42634 6.69008 2.54771 6.23812 2.77717 5.83913C3.00662 5.44014 3.33622 5.10794 3.73339 4.87534L8.68338 2.01701C9.08279 1.78767 9.53532 1.66699 9.99588 1.66699C10.4565 1.66699 10.909 1.78767 11.3084 2.01701L16.2584 4.87534C16.6562 5.10717 16.9864 5.43921 17.2159 5.83837C17.4455 6.23753 17.5664 6.68988 17.5667 7.15034Z" stroke="#363636" stroke-width="1.5" stroke-linecap="round" stroke-linejoin="round"/>
<path d="M11.9417 7.22487C11.9417 7.6089 11.8278 7.9843 11.6145 8.3036C11.4011 8.62291 11.0979 8.87178 10.7431 9.01874C10.3883 9.1657 9.99786 9.20415 9.62122 9.12923C9.24457 9.05431 8.8986 8.86938 8.62705 8.59784C8.3555 8.32629 8.17058 7.98032 8.09566 7.60367C8.02074 7.22702 8.05919 6.83662 8.20615 6.48183C8.35311 6.12703 8.60198 5.82379 8.92129 5.61043C9.24059 5.39708 9.61599 5.2832 10 5.2832C10.515 5.2832 11.0088 5.48777 11.373 5.8519C11.7371 6.21604 11.9417 6.70991 11.9417 7.22487Z" stroke="#363636" stroke-width="1.5" stroke-linecap="round" stroke-linejoin="round"/>
<path d="M13.3334 13.8837C13.3334 12.3837 11.8417 11.167 10.0001 11.167C8.15841 11.167 6.66675 12.3837 6.66675 13.8837" stroke="#363636" stroke-width="1.5" stroke-linecap="round" stroke-linejoin="round"/>
</svg>
