<svg width="40" height="45" viewBox="0 0 40 45" fill="none" xmlns="http://www.w3.org/2000/svg">
<path d="M20 44.5005C19.5691 44.5011 19.1453 44.3903 18.7699 44.1789L1.26986 34.2876C0.884716 34.0694 0.564282 33.753 0.341211 33.3707C0.11814 32.9884 0.000404066 32.5538 0 32.1111V12.3894C0.000407265 11.9467 0.118141 11.5121 0.341207 11.1298C0.564273 10.7475 0.884698 10.4311 1.26984 10.213L18.7699 0.321656C19.1456 0.110764 19.5692 0 20 0C20.4308 0 20.8544 0.110764 21.2301 0.321656L38.7301 10.213C39.1153 10.4311 39.4357 10.7475 39.6588 11.1298C39.8819 11.5121 39.9996 11.9467 40 12.3894V32.1111C39.9996 32.5538 39.8819 32.9884 39.6588 33.3707C39.4357 33.753 39.1153 34.0694 38.7302 34.2876L21.2301 44.1789C20.8547 44.3903 20.4309 44.5011 20 44.5005ZM20 1.66533C19.8564 1.66515 19.7151 1.70209 19.59 1.77255L2.08997 11.6639C1.96159 11.7366 1.85477 11.842 1.78042 11.9695C1.70606 12.0969 1.66681 12.2418 1.66667 12.3894V32.1111C1.66681 32.2587 1.70606 32.4036 1.78042 32.531C1.85479 32.6585 1.96161 32.7639 2.09 32.8367L19.59 42.728C19.7152 42.7982 19.8564 42.8352 20 42.8352C20.1436 42.8352 20.2848 42.7982 20.41 42.728L37.91 32.8367C38.0384 32.7639 38.1452 32.6585 38.2196 32.531C38.2939 32.4036 38.3332 32.2587 38.3333 32.1111V12.3894C38.3332 12.2418 38.2939 12.0969 38.2196 11.9695C38.1452 11.842 38.0384 11.7366 37.91 11.6639L20.41 1.77255C20.2849 1.70208 20.1436 1.66515 20 1.66533Z" fill="black"/>
<path d="M25.4494 14.959C25.4494 17.6794 23.2441 19.8847 20.5237 19.8847C17.8033 19.8847 15.598 17.6794 15.598 14.959C15.598 12.2386 17.8033 10.0333 20.5237 10.0333C23.2441 10.0333 25.4494 12.2386 25.4494 14.959Z" fill="white" stroke="black" stroke-width="3"/>
<path d="M30.8048 35.2C30.8048 29.3445 26.058 24.5976 20.2024 24.5976C14.3469 24.5976 9.60001 29.3445 9.60001 35.2" stroke="black" stroke-width="3"/>
</svg>
