<svg width="16" height="16" viewBox="0 0 16 16" fill="none" xmlns="http://www.w3.org/2000/svg">
<path d="M12.9131 3.26105L9.00646 1.52105C8.43313 1.26772 7.56647 1.26772 6.99313 1.52105L3.08646 3.26105C2.09979 3.70105 1.95312 4.30105 1.95312 4.62105C1.95312 4.94105 2.09979 5.54106 3.08646 5.98106L6.99313 7.72106C7.2798 7.84773 7.6398 7.9144 7.9998 7.9144C8.3598 7.9144 8.7198 7.84773 9.00646 7.72106L12.9131 5.98106C13.8998 5.54106 14.0465 4.94105 14.0465 4.62105C14.0465 4.30105 13.9065 3.70105 12.9131 3.26105Z" fill="#5B6B79"/>
<path d="M8.0002 11.3597C7.74687 11.3597 7.49354 11.3063 7.2602 11.2063L2.76688 9.20634C2.08021 8.89967 1.54688 8.07967 1.54688 7.32634C1.54688 7.05301 1.76687 6.83301 2.04021 6.83301C2.31354 6.83301 2.53354 7.05301 2.53354 7.32634C2.53354 7.68634 2.83354 8.15301 3.16687 8.29967L7.6602 10.2997C7.87354 10.393 8.1202 10.393 8.33354 10.2997L12.8269 8.29967C13.1602 8.15301 13.4602 7.69301 13.4602 7.32634C13.4602 7.05301 13.6802 6.83301 13.9535 6.83301C14.2269 6.83301 14.4469 7.05301 14.4469 7.32634C14.4469 8.07301 13.9135 8.89967 13.2269 9.20634L8.73353 11.2063C8.50687 11.3063 8.25354 11.3597 8.0002 11.3597Z" fill="#5B6B79"/>
<path d="M8.0002 14.6673C7.74687 14.6673 7.49354 14.614 7.2602 14.514L2.76688 12.514C2.02687 12.1873 1.54688 11.4473 1.54688 10.634C1.54688 10.3606 1.76687 10.1406 2.04021 10.1406C2.31354 10.1406 2.53354 10.3606 2.53354 10.634C2.53354 11.054 2.78021 11.434 3.16687 11.6073L7.6602 13.6073C7.87354 13.7006 8.1202 13.7006 8.33354 13.6073L12.8269 11.6073C13.2069 11.4406 13.4602 11.054 13.4602 10.634C13.4602 10.3606 13.6802 10.1406 13.9535 10.1406C14.2269 10.1406 14.4469 10.3606 14.4469 10.634C14.4469 11.4473 13.9669 12.1806 13.2269 12.514L8.73353 14.514C8.50687 14.614 8.25354 14.6673 8.0002 14.6673Z" fill="#5B6B79"/>
</svg>
