<svg width="22" height="22" viewBox="0 0 22 22" fill="none" xmlns="http://www.w3.org/2000/svg">
<rect width="22" height="22" rx="5" fill="#DBDEDF"/>
<path d="M15.6665 8.33301C16.7711 8.33301 17.6665 7.43757 17.6665 6.33301C17.6665 5.22844 16.7711 4.33301 15.6665 4.33301C14.5619 4.33301 13.6665 5.22844 13.6665 6.33301C13.6665 7.43757 14.5619 8.33301 15.6665 8.33301Z" fill="#5B6B79"/>
<path opacity="0.4" d="M15.6668 9.33333C14.0135 9.33333 12.6668 7.98667 12.6668 6.33333C12.6668 5.85333 12.7935 5.40667 12.9935 5H8.0135C5.7135 5 4.3335 6.37333 4.3335 8.68V13.98C4.3335 16.2933 5.7135 17.6667 8.0135 17.6667H13.3135C15.6202 17.6667 16.9935 16.2933 16.9935 13.9867V9.00667C16.5935 9.20667 16.1468 9.33333 15.6668 9.33333Z" fill="#5B6B79"/>
<path d="M10.8333 12.333H7.5C7.22667 12.333 7 12.1063 7 11.833C7 11.5597 7.22667 11.333 7.5 11.333H10.8333C11.1067 11.333 11.3333 11.5597 11.3333 11.833C11.3333 12.1063 11.1067 12.333 10.8333 12.333Z" fill="#5B6B79"/>
<path d="M13.5 15H7.5C7.22667 15 7 14.7733 7 14.5C7 14.2267 7.22667 14 7.5 14H13.5C13.7733 14 14 14.2267 14 14.5C14 14.7733 13.7733 15 13.5 15Z" fill="#5B6B79"/>
</svg>
