<svg width="22" height="22" viewBox="0 0 22 22" fill="none" xmlns="http://www.w3.org/2000/svg">
<rect width="22" height="22" rx="5" fill="#DBDEDF"/>
<path fill-rule="evenodd" clip-rule="evenodd" d="M11.0001 5.16699C10.3812 5.16699 9.78775 5.41282 9.35017 5.85041C8.91258 6.28799 8.66675 6.88149 8.66675 7.50033H6.95758C5.89008 7.50033 5.02675 8.42258 5.186 9.50116L6.04875 15.3345C6.17766 16.2095 6.94533 16.8337 7.82033 16.8337H14.1792C15.0542 16.8337 15.8225 16.2095 15.9526 15.3345L16.8147 9.50116C16.974 8.42199 16.1095 7.50033 15.042 7.50033H13.3334C13.3334 6.88149 13.0876 6.28799 12.65 5.85041C12.2124 5.41282 11.6189 5.16699 11.0001 5.16699ZM12.1667 7.50033C12.1667 7.19091 12.0438 6.89416 11.825 6.67537C11.6062 6.45658 11.3095 6.33366 11.0001 6.33366C10.6907 6.33366 10.3939 6.45658 10.1751 6.67537C9.95633 6.89416 9.83341 7.19091 9.83341 7.50033H12.1667ZM13.1893 10.9076C13.2398 10.9653 13.2784 11.0324 13.303 11.105C13.3275 11.1776 13.3375 11.2544 13.3324 11.3309C13.3272 11.4074 13.3071 11.4821 13.273 11.5508C13.2389 11.6195 13.1917 11.6808 13.1339 11.7312L10.8006 13.7729C10.6892 13.8702 10.545 13.9216 10.3972 13.9166C10.2493 13.9116 10.1089 13.8507 10.0043 13.7461L8.83766 12.5794C8.78195 12.5256 8.73751 12.4612 8.70694 12.3901C8.67637 12.3189 8.66028 12.2423 8.6596 12.1649C8.65893 12.0874 8.67369 12.0106 8.70302 11.9389C8.73235 11.8672 8.77566 11.8021 8.83043 11.7473C8.88521 11.6926 8.95034 11.6493 9.02202 11.6199C9.09371 11.5906 9.17053 11.5758 9.24798 11.5765C9.32544 11.5772 9.40198 11.5933 9.47315 11.6238C9.54432 11.6544 9.60869 11.6989 9.6625 11.7546L10.4436 12.5351L12.3662 10.8527C12.4827 10.7511 12.6347 10.6999 12.789 10.7103C12.9432 10.7207 13.087 10.7918 13.1887 10.9082L13.1893 10.9076Z" fill="#5B6B79"/>
</svg>
