<svg width="22" height="22" viewBox="0 0 22 22" fill="none" xmlns="http://www.w3.org/2000/svg">
<rect width="22" height="22" rx="5" fill="#DBDEDF"/>
<path d="M17.4468 7.63359C17.0201 6.18693 15.8134 4.98026 14.3668 4.55359C13.2668 4.23359 12.5068 4.26026 11.9801 4.65359C11.3468 5.12693 11.2734 5.98026 11.2734 6.58693V8.24693C11.2734 9.88693 12.0201 10.7203 13.4868 10.7203H15.4001C16.0001 10.7203 16.8601 10.6469 17.3334 10.0136C17.7401 9.49359 17.7734 8.73359 17.4468 7.63359Z" fill="#5B6B79"/>
<path opacity="0.4" d="M15.6061 11.9068C15.4328 11.7068 15.1794 11.5935 14.9194 11.5935H12.5328C11.3594 11.5935 10.4061 10.6401 10.4061 9.46677V7.0801C10.4061 6.8201 10.2928 6.56677 10.0928 6.39343C9.89944 6.2201 9.63278 6.1401 9.37944 6.17343C7.81278 6.37343 6.37278 7.23343 5.43278 8.52677C4.48611 9.82679 4.13944 11.4135 4.43944 13.0001C4.87278 15.2935 6.70611 17.1268 9.00611 17.5601C9.37278 17.6335 9.73944 17.6668 10.1061 17.6668C11.3128 17.6668 12.4794 17.2935 13.4728 16.5668C14.7661 15.6268 15.6261 14.1868 15.8261 12.6201C15.8594 12.3601 15.7794 12.1001 15.6061 11.9068Z" fill="#5B6B79"/>
</svg>
