<svg width="16" height="16" viewBox="0 0 16 16" fill="none" xmlns="http://www.w3.org/2000/svg">
<path opacity="0.4" d="M14.0274 4.79301L8.00076 8.27967L1.97412 4.79301C2.24079 4.29967 2.62745 3.86634 3.06079 3.62634L6.62079 1.65301C7.38076 1.22634 8.62076 1.22634 9.38076 1.65301L12.9408 3.62634C13.3741 3.86634 13.7608 4.29967 14.0274 4.79301Z" fill="#5B6B79"/>
<path opacity="0.6" d="M8.0004 8.27961V14.6663C7.5004 14.6663 7.0004 14.5596 6.62042 14.3463L3.06042 12.3729C2.25376 11.9263 1.59375 10.8063 1.59375 9.88628V6.11297C1.59375 5.6863 1.74042 5.21964 1.97375 4.79297L8.0004 8.27961Z" fill="#5B6B79"/>
<path d="M14.4067 6.11297V9.88628C14.4067 10.8063 13.7467 11.9263 12.94 12.3729L9.38 14.3463C9 14.5596 8.5 14.6663 8 14.6663V8.27961L14.0267 4.79297C14.26 5.21964 14.4067 5.6863 14.4067 6.11297Z" fill="#5B6B79"/>
</svg>
