<svg width="22" height="22" viewBox="0 0 22 22" fill="none" xmlns="http://www.w3.org/2000/svg">
<rect width="22" height="22" rx="5" fill="#DBDEDF"/>
<g clip-path="url(#clip0_5_1875)">
<path d="M15.2457 15.2926C14.4778 16.1003 13.4946 16.5452 12.4773 16.5452C10.8098 16.5452 9.36601 15.3743 8.68652 13.6816H13.3182C13.7198 13.6816 14.0455 13.356 14.0455 12.9543C14.0455 12.5527 13.7198 12.2271 13.3182 12.2271H8.31694C8.28769 11.9858 8.27293 11.7429 8.27273 11.4998C8.27273 11.2212 8.29234 10.9481 8.32893 10.6816H13.3182C13.7198 10.6816 14.0455 10.356 14.0455 9.95436C14.0455 9.55273 13.7198 9.22707 13.3182 9.22707H8.72521C9.41927 7.58397 10.84 6.45436 12.4773 6.45436C13.4946 6.45436 14.4778 6.89931 15.2457 7.70695C15.5222 7.99789 15.9822 8.00984 16.2738 7.73315C16.565 7.45633 16.5765 6.99601 16.3001 6.70492C15.255 5.60548 13.8974 5 12.4774 5C10.0529 5 7.98038 6.76092 7.17613 9.22728H5.22726C4.82563 9.22728 4.5 9.55291 4.5 9.95454C4.5 10.3562 4.82563 10.6818 5.22726 10.6818H6.8645C6.83503 10.9502 6.81818 11.2227 6.81818 11.5C6.81818 11.7461 6.83104 11.9883 6.85456 12.2273H5.22726C4.82563 12.2273 4.5 12.5529 4.5 12.9545C4.5 13.3562 4.82563 13.6818 5.22726 13.6818H7.14726C7.92958 16.1958 10.023 18 12.4773 18C13.8974 18 15.2546 17.3943 16.2997 16.2951C16.5763 16.0039 16.565 15.5436 16.2736 15.2669C15.9826 14.99 15.5222 15.0016 15.2457 15.2926Z" fill="#5B6B79"/>
</g>
<defs>
<clipPath id="clip0_5_1875">
<rect width="13" height="13" fill="white" transform="translate(4 5)"/>
</clipPath>
</defs>
</svg>
