<svg width="16" height="16" viewBox="0 0 16 16" fill="none" xmlns="http://www.w3.org/2000/svg">
<path d="M12.6665 5.33301C13.7711 5.33301 14.6665 4.43757 14.6665 3.33301C14.6665 2.22844 13.7711 1.33301 12.6665 1.33301C11.5619 1.33301 10.6665 2.22844 10.6665 3.33301C10.6665 4.43757 11.5619 5.33301 12.6665 5.33301Z" fill="#5B6B79"/>
<path opacity="0.4" d="M12.6668 6.33333C11.0135 6.33333 9.66683 4.98667 9.66683 3.33333C9.66683 2.85333 9.7935 2.40667 9.9935 2H5.0135C2.7135 2 1.3335 3.37333 1.3335 5.68V10.98C1.3335 13.2933 2.7135 14.6667 5.0135 14.6667H10.3135C12.6202 14.6667 13.9935 13.2933 13.9935 10.9867V6.00667C13.5935 6.20667 13.1468 6.33333 12.6668 6.33333Z" fill="#5B6B79"/>
<path d="M7.83333 9.33301H4.5C4.22667 9.33301 4 9.10634 4 8.83301C4 8.55967 4.22667 8.33301 4.5 8.33301H7.83333C8.10667 8.33301 8.33333 8.55967 8.33333 8.83301C8.33333 9.10634 8.10667 9.33301 7.83333 9.33301Z" fill="#5B6B79"/>
<path d="M10.5 12H4.5C4.22667 12 4 11.7733 4 11.5C4 11.2267 4.22667 11 4.5 11H10.5C10.7733 11 11 11.2267 11 11.5C11 11.7733 10.7733 12 10.5 12Z" fill="#5B6B79"/>
</svg>
