<svg width="14" height="14" viewBox="0 0 14 14" fill="none" xmlns="http://www.w3.org/2000/svg">
<g clip-path="url(#clip0_5_1835)">
<path d="M13.6892 5.78195L12.0833 5.38702C11.9866 5.08245 11.8626 4.78725 11.7128 4.50502C11.9539 4.10367 12.4606 3.25894 12.4606 3.25894C12.5077 3.1805 12.5272 3.08858 12.516 2.99779C12.5048 2.907 12.4636 2.82255 12.3989 2.75786L11.239 1.59789C11.1744 1.53302 11.0899 1.49169 10.9991 1.48051C10.9082 1.46932 10.8163 1.48893 10.7379 1.5362L9.48979 2.28402C9.20916 2.13549 8.91571 2.01256 8.61301 1.91671L8.21808 0.310844C8.19595 0.222087 8.14478 0.143279 8.0727 0.0869539C8.00063 0.0306289 7.91179 2.14722e-05 7.82031 0L6.17969 0C5.99143 0 5.8272 0.128187 5.78195 0.310816C5.78195 0.310816 5.50837 1.43164 5.3874 1.9163C5.0651 2.0183 4.75338 2.15109 4.45654 2.31284L3.16239 1.5362C3.00057 1.44006 2.7947 1.46491 2.66131 1.59789L1.50134 2.75786C1.43665 2.82255 1.39545 2.907 1.38427 2.99779C1.37309 3.08858 1.39259 3.1805 1.43965 3.25894L2.23995 4.59555C2.11107 4.84983 2.00297 5.11411 1.91671 5.38582L0.310844 5.78195C0.222087 5.80407 0.143277 5.85523 0.0869508 5.9273C0.0306247 5.99938 1.80419e-05 6.08822 0 6.17969L0 7.82031C0 8.00857 0.128187 8.1728 0.310816 8.21805L1.9171 8.61298C2.01444 8.9218 2.14099 9.22182 2.29441 9.5098L1.57825 10.7034C1.53119 10.7819 1.5117 10.8738 1.52288 10.9646C1.53405 11.0554 1.57526 11.1398 1.63994 11.2045L2.79992 12.3645C2.93251 12.4971 3.13917 12.5223 3.30099 12.4261C3.30099 12.4261 4.10408 11.9447 4.49742 11.7092C4.78204 11.8609 5.07995 11.9863 5.38743 12.0837L5.78197 13.6892C5.8272 13.8718 5.99143 14 6.17969 14H7.82031C7.91178 14 8.00061 13.9694 8.07268 13.9131C8.14476 13.8567 8.19592 13.7779 8.21805 13.6892L8.6126 12.0837C8.92751 11.984 9.23222 11.8546 9.52262 11.6972C9.92677 11.9395 10.7379 12.4261 10.7379 12.4261C10.8993 12.5227 11.106 12.4978 11.2389 12.3645L12.3989 11.2045C12.4636 11.1398 12.5048 11.0554 12.516 10.9646C12.5272 10.8738 12.5077 10.7819 12.4606 10.7034L11.7232 9.47494C11.8686 9.19888 11.9891 8.91042 12.0833 8.61298L13.6892 8.21805C13.7779 8.19594 13.8567 8.14477 13.9131 8.0727C13.9694 8.00063 14 7.91179 14 7.82031V6.17969C14 6.08822 13.9694 5.99938 13.9131 5.92731C13.8567 5.85524 13.7779 5.80407 13.6892 5.78195ZM7 9.87109C5.41704 9.87109 4.12891 8.58296 4.12891 7C4.12891 5.41704 5.41704 4.12891 7 4.12891C8.58296 4.12891 9.87109 5.41704 9.87109 7C9.87109 8.58296 8.58296 9.87109 7 9.87109Z" fill="#5B6B79"/>
</g>
<defs>
<clipPath id="clip0_5_1835">
<rect width="14" height="14" fill="white"/>
</clipPath>
</defs>
</svg>
