<svg width="22" height="22" viewBox="0 0 22 22" fill="none" xmlns="http://www.w3.org/2000/svg">
<rect width="22" height="22" rx="5" fill="#DBDEDF"/>
<g clip-path="url(#clip0_5_1898)">
<path d="M14.2082 8.08301H11.2915V6.57713C11.5017 6.51507 11.6861 6.3868 11.8175 6.21144C11.9489 6.03607 12.0202 5.82296 12.0207 5.60384C12.0207 5.3331 11.9131 5.07345 11.7217 4.882C11.5302 4.69056 11.2706 4.58301 10.9998 4.58301C10.7291 4.58301 10.4694 4.69056 10.278 4.882C10.0866 5.07345 9.979 5.3331 9.979 5.60384C9.97952 5.82296 10.0508 6.03607 10.1821 6.21144C10.3135 6.3868 10.498 6.51507 10.7082 6.57713V8.08301H7.7915C7.32738 8.08301 6.88226 8.26738 6.55407 8.59557C6.22588 8.92376 6.0415 9.36888 6.0415 9.83301V15.3747C6.0415 15.8388 6.22588 16.2839 6.55407 16.6121C6.88226 16.9403 7.32738 17.1247 7.7915 17.1247H14.2082C14.6723 17.1247 15.1174 16.9403 15.4456 16.6121C15.7738 16.2839 15.9582 15.8388 15.9582 15.3747V9.83301C15.9582 9.36888 15.7738 8.92376 15.4456 8.59557C15.1174 8.26738 14.6723 8.08301 14.2082 8.08301ZM8.08317 11.4372C8.08317 11.1664 8.19072 10.9068 8.38217 10.7153C8.57361 10.5239 8.83326 10.4163 9.104 10.4163C9.37475 10.4163 9.6344 10.5239 9.82584 10.7153C10.0173 10.9068 10.1248 11.1664 10.1248 11.4372C10.1248 11.7079 10.0173 11.9676 9.82584 12.159C9.6344 12.3505 9.37475 12.458 9.104 12.458C8.83326 12.458 8.57361 12.3505 8.38217 12.159C8.19072 11.9676 8.08317 11.7079 8.08317 11.4372ZM12.8831 14.6306C12.3071 14.9267 11.6558 15.083 10.9998 15.083C10.3439 15.083 9.69259 14.9267 9.11655 14.6306C9.05028 14.5938 9.00091 14.5327 8.97889 14.4602C8.95687 14.3877 8.96391 14.3094 8.99853 14.242C9.03315 14.1746 9.09264 14.1233 9.16441 14.0989C9.23618 14.0745 9.31462 14.079 9.38313 14.1115C10.385 14.6265 11.6147 14.6265 12.6165 14.1115C12.6848 14.0811 12.7621 14.0779 12.8326 14.1028C12.9031 14.1276 12.9613 14.1785 12.9955 14.2449C13.0296 14.3114 13.037 14.3884 13.0161 14.4601C12.9952 14.5319 12.9476 14.5929 12.8831 14.6306ZM12.8957 12.458C12.7616 12.458 12.6289 12.4316 12.505 12.3803C12.3812 12.329 12.2686 12.2538 12.1738 12.159C12.079 12.0642 12.0038 11.9517 11.9525 11.8278C11.9012 11.704 11.8748 11.5712 11.8748 11.4372C11.8748 11.3031 11.9012 11.1704 11.9525 11.0465C12.0038 10.9227 12.079 10.8101 12.1738 10.7153C12.2686 10.6205 12.3812 10.5453 12.505 10.494C12.6289 10.4427 12.7616 10.4163 12.8957 10.4163C13.1664 10.4163 13.4261 10.5239 13.6175 10.7153C13.809 10.9068 13.9165 11.1664 13.9165 11.4372C13.9165 11.7079 13.809 11.9676 13.6175 12.159C13.4261 12.3505 13.1664 12.458 12.8957 12.458Z" fill="#5B6B79"/>
<path d="M12.8955 11.875C13.1371 11.875 13.333 11.6791 13.333 11.4375C13.333 11.1959 13.1371 11 12.8955 11C12.6539 11 12.458 11.1959 12.458 11.4375C12.458 11.6791 12.6539 11.875 12.8955 11.875Z" fill="#5B6B79"/>
<path d="M9.104 11.875C9.34563 11.875 9.5415 11.6791 9.5415 11.4375C9.5415 11.1959 9.34563 11 9.104 11C8.86238 11 8.6665 11.1959 8.6665 11.4375C8.6665 11.6791 8.86238 11.875 9.104 11.875Z" fill="#5B6B79"/>
<path d="M16.8332 10.708H16.5415V14.4997H16.8332C17.0652 14.4997 17.2878 14.4075 17.4519 14.2434C17.616 14.0793 17.7082 13.8567 17.7082 13.6247V11.583C17.7082 11.3509 17.616 11.1284 17.4519 10.9643C17.2878 10.8002 17.0652 10.708 16.8332 10.708ZM5.45817 10.708H5.1665C4.93444 10.708 4.71188 10.8002 4.54779 10.9643C4.38369 11.1284 4.2915 11.3509 4.2915 11.583V13.6247C4.2915 13.8567 4.38369 14.0793 4.54779 14.2434C4.71188 14.4075 4.93444 14.4997 5.1665 14.4997H5.45817V10.708Z" fill="#A7B0B6"/>
</g>
<defs>
<clipPath id="clip0_5_1898">
<rect width="14" height="14" fill="white" transform="translate(4 4)"/>
</clipPath>
</defs>
</svg>
