<svg width="50" height="49" viewBox="0 0 50 49" fill="none" xmlns="http://www.w3.org/2000/svg">
<path d="M28.7412 45.4693L26.2638 47.9467C25.2148 48.9956 23.5186 48.9956 22.4808 47.9467L0.786743 26.2638C-0.262248 25.2148 -0.262248 23.5186 0.786743 22.4808L22.4808 0.786743C23.5297 -0.262248 25.226 -0.262248 26.2638 0.786743L28.7412 3.26414C29.8014 4.32429 29.779 6.05401 28.6966 7.09184L15.2494 19.9029H47.3217C48.8059 19.9029 50 21.097 50 22.5812V26.1522C50 27.6364 48.8059 28.8305 47.3217 28.8305H15.2494L28.6966 41.6416C29.7902 42.6794 29.8125 44.4091 28.7412 45.4693Z" fill="white"/>
</svg>
