<svg width="19" height="18" viewBox="0 0 19 18" fill="none" xmlns="http://www.w3.org/2000/svg">
<g clip-path="url(#clip0_762_23509)">
<path d="M17.9988 0H1.43875C1.0405 0 0.71875 0.32175 0.71875 0.72V17.28C0.71875 17.6782 1.0405 18 1.43875 18H17.9988C18.397 18 18.7188 17.6782 18.7188 17.28C18.7188 10.8129 18.7188 7.18708 18.7188 0.72C18.7188 0.32175 18.397 0 17.9988 0ZM10.5243 4.83075C10.3623 4.5855 10.072 4.46175 9.6535 4.46175C9.62425 4.46175 9.586 4.464 9.53425 4.4685C9.48475 4.473 9.38575 4.50225 9.244 4.55175C9.10163 4.60268 8.96629 4.67148 8.84125 4.7565C8.7175 4.842 8.5825 4.9815 8.43625 5.1705C8.16936 5.52496 7.77992 5.81311 7.33797 5.77362L6.82333 5.72763C6.3442 5.68481 5.96479 5.27185 6.1345 4.82175C6.238 4.54725 6.4 4.284 6.616 4.03425C6.832 3.78225 7.09075 3.56175 7.39225 3.37275C7.69375 3.1815 8.05825 3.03075 8.48125 2.916C8.9065 2.80125 9.361 2.745 9.8515 2.745C10.3308 2.745 10.765 2.8035 11.152 2.91825C11.539 3.03525 11.8517 3.177 12.0835 3.348C12.3068 3.50909 12.5034 3.70421 12.6663 3.92625C12.8215 4.14225 12.9295 4.3425 12.9903 4.527C13.051 4.7115 13.0802 4.88025 13.0802 5.04V9.14625C13.0802 9.29025 13.1117 9.43875 13.177 9.59175C13.2423 9.74475 13.3188 9.87975 13.4065 9.99675C13.4943 10.1138 13.5843 10.2195 13.6765 10.3185C13.7688 10.4152 13.8475 10.4917 13.915 10.5413C13.9641 10.582 13.9668 10.6565 13.9207 10.7006L12.935 11.6442C12.62 11.9457 12.1229 11.9553 11.809 11.6528C11.6223 11.4728 11.4828 11.3378 11.3928 11.2455L11.2555 11.106C11.1552 11.0099 10.9898 11.004 10.9005 11.1103C10.7507 11.2888 10.5755 11.4493 10.3758 11.592C10.09 11.7945 9.784 11.943 9.46 12.0353C9.13375 12.1275 8.7985 12.1815 8.45425 12.195C8.11 12.2085 7.77925 12.1613 7.4665 12.0487C7.15375 11.9362 6.87025 11.7855 6.6205 11.592C6.37075 11.3985 6.17275 11.1375 6.02425 10.8045C5.87575 10.4715 5.8015 10.0957 5.8015 9.6705C5.8015 9.279 5.869 8.92125 6.00175 8.59725C6.13675 8.271 6.30775 8.001 6.51925 7.785C6.73075 7.569 6.985 7.3755 7.28425 7.20675C7.5835 7.038 7.87825 6.90525 8.16625 6.8085C8.45425 6.714 8.76475 6.633 9.1 6.56775C9.43525 6.5025 9.721 6.45975 9.9595 6.4395C10.3583 6.40564 10.675 6.0778 10.675 5.67752V5.508C10.675 5.20425 10.6233 4.97925 10.5243 4.83075ZM14.5855 13.3717C14.5225 13.446 14.4167 13.5472 14.2683 13.6755C14.0455 13.8679 13.8903 13.9613 13.582 14.1503C13.2738 14.3393 12.934 14.5103 12.5695 14.6655C12.2028 14.8208 11.7527 14.9558 11.2172 15.0705C10.684 15.1853 10.1328 15.2415 9.568 15.2415C8.9965 15.2415 8.42725 15.1695 7.85575 15.0255C7.28425 14.8815 6.78475 14.7037 6.35275 14.4923C5.923 14.2808 5.50675 14.0378 5.113 13.7677C4.717 13.4955 4.39975 13.2525 4.159 13.0365C3.9205 12.8205 3.718 12.6158 3.556 12.4268C3.51775 12.384 3.493 12.3457 3.484 12.312C3.475 12.2782 3.47725 12.249 3.49075 12.2288C3.50425 12.2085 3.5245 12.1927 3.54925 12.1792C3.57613 12.1673 3.60568 12.1627 3.63492 12.1659C3.66416 12.169 3.69204 12.1799 3.71575 12.1972C4.636 12.7417 5.356 13.1265 5.8735 13.3538C7.73875 14.1728 9.6535 14.382 11.6178 13.9815C12.529 13.7948 13.465 13.482 14.428 13.041C14.5 13.014 14.563 13.0072 14.6147 13.0208C14.6665 13.0343 14.6935 13.0747 14.6935 13.1423C14.6935 13.2052 14.6575 13.284 14.5855 13.3717ZM15.9333 12.7192C15.8927 12.969 15.823 13.2052 15.7285 13.4348C15.5665 13.8195 15.3618 14.1097 15.1188 14.2987C15.0378 14.364 14.9748 14.3842 14.932 14.3617C14.8892 14.3393 14.8892 14.283 14.932 14.1953C15.0332 13.986 15.139 13.7048 15.2515 13.347C15.364 12.9915 15.3798 12.762 15.2987 12.6608C15.274 12.627 15.238 12.6023 15.1862 12.5798C15.1368 12.5595 15.0715 12.546 14.9928 12.537C14.914 12.528 14.842 12.5235 14.7812 12.519C14.7183 12.5145 14.635 12.5145 14.5293 12.519C14.4235 12.5235 14.3492 12.528 14.302 12.5325C14.1739 12.545 14.0456 12.5563 13.9172 12.5662C13.888 12.5708 13.8565 12.5752 13.825 12.5775C13.7913 12.5798 13.7642 12.582 13.7463 12.5843L13.6855 12.591C13.663 12.5933 13.6473 12.5955 13.636 12.5955H13.5704C13.5662 12.5955 13.5619 12.5951 13.5577 12.5942L13.5514 12.593C13.5449 12.5917 13.5388 12.5888 13.5337 12.5845C13.5299 12.5814 13.5268 12.5775 13.5244 12.5732L13.5168 12.5595C13.4875 12.4853 13.6 12.393 13.8542 12.2805C14.1085 12.168 14.356 12.0983 14.5945 12.0712C14.815 12.0375 15.0738 12.0375 15.3708 12.0645C15.6678 12.0915 15.85 12.1477 15.9175 12.231C15.9692 12.3097 15.9738 12.4718 15.9333 12.7192ZM9.11125 7.99875C8.85025 8.109 8.641 8.27325 8.48575 8.49375C8.3305 8.71425 8.25175 8.97975 8.25175 9.2925C8.25175 9.693 8.4205 10.0013 8.75575 10.2195C9.073 10.4242 9.406 10.476 9.75475 10.3725C10.1575 10.2555 10.4298 9.96975 10.5738 9.51525C10.6412 9.306 10.675 9.072 10.675 8.811V8.48538C10.675 8.0456 10.3084 7.683 9.87625 7.76475C9.6265 7.812 9.37225 7.89075 9.11125 7.99875Z" fill="#30C37C"/>
</g>
<defs>
<clipPath id="clip0_762_23509">
<rect x="0.71875" width="18" height="18" rx="5" fill="white"/>
</clipPath>
</defs>
</svg>
