<svg width="18" height="18" viewBox="0 0 18 18" fill="none" xmlns="http://www.w3.org/2000/svg">
<mask id="mask0_762_23106" style="mask-type:alpha" maskUnits="userSpaceOnUse" x="0" y="0" width="18" height="18">
<rect width="18" height="18" fill="#D9D9D9"/>
</mask>
<g mask="url(#mask0_762_23106)">
<path d="M6.30195 12.752L9.00195 10.052L11.702 12.752L12.752 11.702L10.052 9.00195L12.752 6.30195L11.702 5.25195L9.00195 7.95195L6.30195 5.25195L5.25195 6.30195L7.95195 9.00195L5.25195 11.702L6.30195 12.752ZM9.00195 16.502C7.96445 16.502 6.98945 16.3051 6.07695 15.9113C5.16445 15.5176 4.3707 14.9832 3.6957 14.3082C3.0207 13.6332 2.48633 12.8395 2.09258 11.927C1.69883 11.0145 1.50195 10.0395 1.50195 9.00195C1.50195 7.96445 1.69883 6.98945 2.09258 6.07695C2.48633 5.16445 3.0207 4.3707 3.6957 3.6957C4.3707 3.0207 5.16445 2.48633 6.07695 2.09258C6.98945 1.69883 7.96445 1.50195 9.00195 1.50195C10.0395 1.50195 11.0145 1.69883 11.927 2.09258C12.8395 2.48633 13.6332 3.0207 14.3082 3.6957C14.9832 4.3707 15.5176 5.16445 15.9113 6.07695C16.3051 6.98945 16.502 7.96445 16.502 9.00195C16.502 10.0395 16.3051 11.0145 15.9113 11.927C15.5176 12.8395 14.9832 13.6332 14.3082 14.3082C13.6332 14.9832 12.8395 15.5176 11.927 15.9113C11.0145 16.3051 10.0395 16.502 9.00195 16.502Z" fill="white"/>
</g>
</svg>
