<svg width="56" height="56" viewBox="0 0 56 56" fill="none" xmlns="http://www.w3.org/2000/svg">
<rect width="56" height="56" rx="12" fill="#30C37C" fill-opacity="0.16"/>
<path d="M32.9583 21.625C32.9583 22.2761 32.8301 22.9209 32.5809 23.5225C32.3317 24.124 31.9665 24.6706 31.5061 25.1311C31.0457 25.5915 30.4991 25.9567 29.8975 26.2059C29.2959 26.4551 28.6511 26.5833 28 26.5833C27.3489 26.5833 26.7041 26.4551 26.1025 26.2059C25.501 25.9567 24.9544 25.5915 24.4939 25.1311C24.0335 24.6706 23.6683 24.124 23.4191 23.5225C23.1699 22.9209 23.0417 22.2761 23.0417 21.625C23.0417 20.31 23.5641 19.0488 24.4939 18.1189C25.4238 17.1891 26.685 16.6667 28 16.6667C29.315 16.6667 30.5762 17.1891 31.5061 18.1189C32.4359 19.0488 32.9583 20.31 32.9583 21.625ZM36.5 34.375C36.5 37.1134 32.6948 39.3333 28 39.3333C23.3052 39.3333 19.5 37.1134 19.5 34.375C19.5 31.6366 23.3052 29.4167 28 29.4167C32.6948 29.4167 36.5 31.6366 36.5 34.375ZM21.0895 18.0833C21.3417 18.0833 21.5863 18.1069 21.8233 18.1542C21.2283 19.2141 20.9161 20.4094 20.9167 21.625C20.9167 22.8547 21.2298 24.0121 21.7808 25.0193C21.557 25.0618 21.3266 25.0831 21.0895 25.0831C19.0863 25.0831 17.4614 23.5163 17.4614 21.5839C17.4614 19.6516 19.0863 18.0833 21.0895 18.0833ZM18.7166 37.8968C17.9133 36.9349 17.375 35.7548 17.375 34.375C17.375 33.0377 17.8808 31.8873 18.6443 30.9424C15.9442 31.1521 13.8333 32.6283 13.8333 34.4161C13.8333 36.2223 15.9824 37.7098 18.7166 37.8968ZM35.0833 21.625C35.0833 22.8547 34.7703 24.0121 34.2192 25.0193C34.4421 25.0618 34.6725 25.0831 34.9105 25.0831C36.9137 25.0831 38.5372 23.5163 38.5372 21.5839C38.5372 19.6516 36.9151 18.0833 34.9119 18.0833C34.6598 18.0833 34.4151 18.1069 34.1781 18.1542C34.7547 19.1798 35.0833 20.3642 35.0833 21.625ZM37.2834 37.8968C40.0176 37.7098 42.1667 36.2223 42.1667 34.4161C42.1667 32.6268 40.0544 31.1521 37.3557 30.9424C38.1207 31.8873 38.625 33.0377 38.625 34.375C38.625 35.7548 38.0867 36.9349 37.2834 37.8968Z" fill="#30C37C"/>
</svg>
