<svg width="56" height="56" viewBox="0 0 56 56" fill="none" xmlns="http://www.w3.org/2000/svg">
<rect width="56" height="56" rx="12" fill="#30C37C" fill-opacity="0.16"/>
<path d="M19.5 37.9167H26.5833V43.5833L23.0417 41.4583L19.5 43.5833V37.9167ZM39.3333 12.4167H28V43.5833L31.5417 41.4583L35.0833 43.5833V40.75H39.3333C40.0848 40.75 40.8055 40.4515 41.3368 39.9201C41.8682 39.3888 42.1667 38.6681 42.1667 37.9167V15.25C42.1667 14.4985 41.8682 13.7779 41.3368 13.2465C40.8055 12.7152 40.0848 12.4167 39.3333 12.4167ZM30.8333 18.0833H33.6667V20.9167H30.8333V18.0833ZM30.8333 25.1667H33.6667V28H30.8333V25.1667ZM30.8333 32.25H33.6667V35.0833H30.8333V32.25ZM16.6667 12.4167C15.9159 12.4189 15.1966 12.7181 14.6657 13.249C14.1348 13.7799 13.8356 14.4992 13.8333 15.25V37.9167C13.8356 38.6674 14.1348 39.3868 14.6657 39.9177C15.1966 40.4485 15.9159 40.7478 16.6667 40.75V15.25H26.5833V12.4167H16.6667Z" fill="#30C37C"/>
<path d="M19.5 18.0833H22.3333V20.9167H19.5V18.0833ZM19.5 25.1667H22.3333V28H19.5V25.1667ZM19.5 32.25H22.3333V35.0833H19.5V32.25Z" fill="#30C37C"/>
</svg>
