<svg width="44" height="33" viewBox="0 0 44 33" fill="none" xmlns="http://www.w3.org/2000/svg">
<rect y="0.75" width="44" height="32.08" rx="8" fill="#EBEBEB"/>
<path d="M28.375 12.77H15.625M19.8775 11.27C20.0325 10.8309 20.3198 10.4506 20.6999 10.1816C21.0801 9.91264 21.5343 9.76819 22 9.76819C22.4657 9.76819 22.9199 9.91264 23.3001 10.1816C23.6802 10.4506 23.9675 10.8309 24.1225 11.27M26.7805 19.82C26.6478 21.8105 26.581 22.8058 25.9323 23.4125C25.2835 24.0193 24.286 24.02 22.2903 24.02H21.7097C19.7147 24.02 18.7172 24.02 18.0677 23.4125C17.419 22.8058 17.353 21.8105 17.2202 19.82L16.8752 14.645M27.1248 14.645L26.9747 16.895" stroke="#EF5F5F" stroke-width="1.125" stroke-linecap="round"/>
</svg>
