<svg width="44" height="33" viewBox="0 0 44 33" fill="none" xmlns="http://www.w3.org/2000/svg">
<rect y="0.75" width="44" height="32.08" rx="8" fill="#EBEBEB"/>
<path d="M19 24.5005H25C27.121 24.5005 28.1823 24.5005 28.8408 23.842C29.5 23.182 29.5 22.1222 29.5 20.0005V19.2505C29.5 17.1295 29.5 16.069 28.8408 15.4097C28.2648 14.8337 27.3812 14.761 25.75 14.752M18.25 14.752C16.6188 14.761 15.7352 14.8337 15.1592 15.4097C14.5 16.069 14.5 17.1295 14.5 19.2505V20.0005C14.5 22.1222 14.5 23.1827 15.1592 23.842C15.3842 24.067 15.6558 24.2147 16 24.3122" stroke="#30C37C" stroke-width="0.75" stroke-linecap="round"/>
<path d="M22 9.5V19.25M22 19.25L19.75 16.625M22 19.25L24.25 16.625" stroke="#30C37C" stroke-width="0.75" stroke-linecap="round" stroke-linejoin="round"/>
</svg>
