<svg width="18" height="18" viewBox="0 0 18 18" fill="none" xmlns="http://www.w3.org/2000/svg">
<g clip-path="url(#clip0_762_23151)">
<path fill-rule="evenodd" clip-rule="evenodd" d="M0 9C0 4.7574 0 2.6361 1.3176 1.3176C2.637 0 4.7574 0 9 0C13.2426 0 15.3639 0 16.6815 1.3176C18 2.637 18 4.7574 18 9C18 13.2426 18 15.3639 16.6815 16.6815C15.3648 18 13.2426 18 9 18C4.7574 18 2.6361 18 1.3176 16.6815C0 15.3648 0 13.2426 0 9ZM9 3.825C9.17902 3.825 9.35071 3.89612 9.4773 4.0227C9.60388 4.14929 9.675 4.32098 9.675 4.5V9.171L11.223 7.623C11.2848 7.55668 11.3593 7.50349 11.4421 7.4666C11.5249 7.4297 11.6143 7.40987 11.7049 7.40827C11.7956 7.40667 11.8856 7.42334 11.9696 7.45729C12.0537 7.49124 12.13 7.54177 12.1941 7.60587C12.2582 7.66996 12.3088 7.74631 12.3427 7.83036C12.3767 7.91441 12.3933 8.00444 12.3917 8.09507C12.3901 8.1857 12.3703 8.27508 12.3334 8.35788C12.2965 8.44068 12.2433 8.5152 12.177 8.577L9.477 11.277C9.35044 11.4034 9.17887 11.4744 9 11.4744C8.82112 11.4744 8.64956 11.4034 8.523 11.277L5.823 8.577C5.75668 8.5152 5.70349 8.44068 5.6666 8.35788C5.6297 8.27508 5.60987 8.1857 5.60827 8.09507C5.60667 8.00444 5.62334 7.91441 5.65729 7.83036C5.69124 7.74631 5.74177 7.66996 5.80587 7.60587C5.86996 7.54177 5.94631 7.49124 6.03036 7.45729C6.11441 7.42334 6.20444 7.40667 6.29507 7.40827C6.3857 7.40987 6.47508 7.4297 6.55788 7.4666C6.64068 7.50349 6.7152 7.55668 6.777 7.623L8.325 9.171V4.5C8.325 4.32098 8.39612 4.14929 8.5227 4.0227C8.64929 3.89612 8.82098 3.825 9 3.825ZM5.4 12.825C5.22098 12.825 5.04929 12.8961 4.9227 13.0227C4.79612 13.1493 4.725 13.321 4.725 13.5C4.725 13.679 4.79612 13.8507 4.9227 13.9773C5.04929 14.1039 5.22098 14.175 5.4 14.175H12.6C12.779 14.175 12.9507 14.1039 13.0773 13.9773C13.2039 13.8507 13.275 13.679 13.275 13.5C13.275 13.321 13.2039 13.1493 13.0773 13.0227C12.9507 12.8961 12.779 12.825 12.6 12.825H5.4Z" fill="white"/>
</g>
<defs>
<clipPath id="clip0_762_23151">
<rect width="18" height="18" fill="white"/>
</clipPath>
</defs>
</svg>
