<svg width="96" height="96" viewBox="0 0 96 96" fill="none" xmlns="http://www.w3.org/2000/svg">
<path d="M44 80H26C19.9333 80 14.7507 77.9 10.452 73.7C6.15333 69.5 4.00267 64.3667 4 58.3C4 53.1 5.56667 48.4667 8.7 44.4C11.8333 40.3333 15.9333 37.7333 21 36.6C22.6667 30.4667 26 25.5 31 21.7C36 17.9 41.6667 16 48 16C55.8 16 62.4173 18.7173 67.852 24.152C73.2867 29.5867 76.0027 36.2027 76 44C80.6 44.5333 84.4173 46.5173 87.452 49.952C90.4867 53.3867 92.0027 57.4027 92 62C92 67 90.2507 71.2507 86.752 74.752C83.2533 78.2533 79.0027 80.0027 74 80H52V51.4L58.4 57.6L64 52L48 36L32 52L37.6 57.6L44 51.4V80Z" fill="#9097A7"/>
</svg>
