<svg width="44" height="33" viewBox="0 0 44 33" fill="none" xmlns="http://www.w3.org/2000/svg">
<rect y="0.75" width="44" height="32.08" rx="8" fill="#EBEBEB"/>
<path d="M16 24.77H19M28 24.77H22M26.7527 14.3532L27.3093 13.7982C27.5284 13.5791 27.7022 13.319 27.8209 13.0327C27.9395 12.7465 28.0005 12.4396 28.0006 12.1297C28.0006 11.8199 27.9396 11.513 27.8211 11.2267C27.7025 10.9404 27.5287 10.6802 27.3096 10.4611C27.0905 10.242 26.8304 10.0681 26.5441 9.9495C26.2579 9.83088 25.951 9.76981 25.6411 9.76978C25.3313 9.76974 25.0244 9.83074 24.7381 9.9493C24.4518 10.0678 24.1916 10.2416 23.9725 10.4607L23.416 11.0172C23.416 11.0172 23.4858 12.1992 24.5283 13.2417C25.5708 14.2842 26.7527 14.354 26.7527 14.354L24.1975 16.91M23.416 11.0165L18.3033 16.13C17.9568 16.4765 17.7835 16.649 17.635 16.8402C17.4591 17.0653 17.3084 17.309 17.1857 17.567C17.0815 17.7852 17.0042 18.0177 16.849 18.482L16.1927 20.4515L16.033 20.933C15.9956 21.0451 15.9901 21.1654 16.0172 21.2804C16.0443 21.3955 16.1029 21.5007 16.1865 21.5842C16.2701 21.6678 16.3753 21.7264 16.4903 21.7535C16.6053 21.7807 16.7257 21.7752 16.8378 21.7377L17.3185 21.578M21.64 19.4675C21.2935 19.814 21.121 19.9865 20.9297 20.1357C20.7042 20.3117 20.462 20.4615 20.203 20.585C19.9848 20.6892 19.7522 20.7665 19.288 20.921L17.3185 21.578M17.3185 21.578L16.1935 20.4522" stroke="#30C37C" stroke-width="1.125" stroke-linecap="round"/>
</svg>
