<svg width="18" height="18" viewBox="0 0 18 18" fill="none" xmlns="http://www.w3.org/2000/svg">
<path d="M9 6.75C8.40326 6.75 7.83097 6.98705 7.40901 7.40901C6.98705 7.83097 6.75 8.40326 6.75 9C6.75 9.59674 6.98705 10.169 7.40901 10.591C7.83097 11.0129 8.40326 11.25 9 11.25C9.59674 11.25 10.169 11.0129 10.591 10.591C11.0129 10.169 11.25 9.59674 11.25 9C11.25 8.40326 11.0129 7.83097 10.591 7.40901C10.169 6.98705 9.59674 6.75 9 6.75ZM9 9.9C8.7613 9.9 8.53239 9.80518 8.3636 9.6364C8.19482 9.46761 8.1 9.23869 8.1 9C8.1 8.7613 8.19482 8.53239 8.3636 8.3636C8.53239 8.19482 8.7613 8.1 9 8.1C9.23869 8.1 9.46761 8.19482 9.6364 8.3636C9.80518 8.53239 9.9 8.7613 9.9 9C9.9 9.23869 9.80518 9.46761 9.6364 9.6364C9.46761 9.80518 9.23869 9.9 9 9.9ZM9 6.75C8.40326 6.75 7.83097 6.98705 7.40901 7.40901C6.98705 7.83097 6.75 8.40326 6.75 9C6.75 9.59674 6.98705 10.169 7.40901 10.591C7.83097 11.0129 8.40326 11.25 9 11.25C9.59674 11.25 10.169 11.0129 10.591 10.591C11.0129 10.169 11.25 9.59674 11.25 9C11.25 8.40326 11.0129 7.83097 10.591 7.40901C10.169 6.98705 9.59674 6.75 9 6.75ZM9 9.9C8.7613 9.9 8.53239 9.80518 8.3636 9.6364C8.19482 9.46761 8.1 9.23869 8.1 9C8.1 8.7613 8.19482 8.53239 8.3636 8.3636C8.53239 8.19482 8.7613 8.1 9 8.1C9.23869 8.1 9.46761 8.19482 9.6364 8.3636C9.80518 8.53239 9.9 8.7613 9.9 9C9.9 9.23869 9.80518 9.46761 9.6364 9.6364C9.46761 9.80518 9.23869 9.9 9 9.9ZM9 0C7.8181 0 6.64778 0.232792 5.55585 0.685084C4.46392 1.13738 3.47177 1.80031 2.63604 2.63604C0.948211 4.32387 0 6.61305 0 9C0 11.3869 0.948211 13.6761 2.63604 15.364C3.47177 16.1997 4.46392 16.8626 5.55585 17.3149C6.64778 17.7672 7.8181 18 9 18C11.3869 18 13.6761 17.0518 15.364 15.364C17.0518 13.6761 18 11.3869 18 9C18 7.8181 17.7672 6.64778 17.3149 5.55585C16.8626 4.46392 16.1997 3.47177 15.364 2.63604C14.5282 1.80031 13.5361 1.13738 12.4442 0.685084C11.3522 0.232792 10.1819 0 9 0ZM9 12.6C6.633 12.6 4.5 11.187 3.6 9C4.1977 7.56863 5.33901 6.43295 6.77332 5.84235C8.20764 5.25175 9.81771 5.2545 11.25 5.85C12.6732 6.44513 13.8049 7.57676 14.4 9C13.5 11.187 11.367 12.6 9 12.6ZM9 6.75C8.40326 6.75 7.83097 6.98705 7.40901 7.40901C6.98705 7.83097 6.75 8.40326 6.75 9C6.75 9.59674 6.98705 10.169 7.40901 10.591C7.83097 11.0129 8.40326 11.25 9 11.25C9.59674 11.25 10.169 11.0129 10.591 10.591C11.0129 10.169 11.25 9.59674 11.25 9C11.25 8.40326 11.0129 7.83097 10.591 7.40901C10.169 6.98705 9.59674 6.75 9 6.75ZM9 9.9C8.7613 9.9 8.53239 9.80518 8.3636 9.6364C8.19482 9.46761 8.1 9.23869 8.1 9C8.1 8.7613 8.19482 8.53239 8.3636 8.3636C8.53239 8.19482 8.7613 8.1 9 8.1C9.23869 8.1 9.46761 8.19482 9.6364 8.3636C9.80518 8.53239 9.9 8.7613 9.9 9C9.9 9.23869 9.80518 9.46761 9.6364 9.6364C9.46761 9.80518 9.23869 9.9 9 9.9Z" fill="#30C37C"/>
</svg>
