<svg width="88" height="64" viewBox="0 0 88 64" fill="none" xmlns="http://www.w3.org/2000/svg">
<path d="M40 64H22C15.9333 64 10.7507 61.9 6.452 57.7C2.15333 53.5 0.00266667 48.3667 0 42.3C0 37.1 1.56667 32.4667 4.7 28.4C7.83333 24.3333 11.9333 21.7333 17 20.6C18.6667 14.4667 22 9.5 27 5.7C32 1.9 37.6667 0 44 0C51.8 0 58.4173 2.71733 63.852 8.152C69.2867 13.5867 72.0027 20.2027 72 28C76.6 28.5333 80.4173 30.5173 83.452 33.952C86.4867 37.3867 88.0027 41.4027 88 46C88 51 86.2507 55.2507 82.752 58.752C79.2533 62.2533 75.0027 64.0027 70 64H48V35.4L54.4 41.6L60 36L44 20L28 36L33.6 41.6L40 35.4V64Z" fill="#9097A7"/>
</svg>
