<svg width="18" height="18" viewBox="0 0 18 18" fill="none" xmlns="http://www.w3.org/2000/svg">
<path d="M6.1317 8.6508C6.543 8.3088 6.9579 8.3088 7.3791 8.6607L7.4763 8.7489L11.9637 13.2363L12.0483 13.311C12.2215 13.4452 12.4377 13.5117 12.6563 13.4979C12.875 13.4841 13.0811 13.391 13.2361 13.2361C13.391 13.0811 13.4841 12.875 13.4979 12.6563C13.5117 12.4377 13.4452 12.2215 13.311 12.0483L13.2363 11.9637L12.0735 10.8L12.3363 10.5363L12.4317 10.4508C12.843 10.1088 13.2579 10.1088 13.6791 10.4607L13.7763 10.5489L17.9829 14.7564C17.8977 15.6134 17.508 16.4115 16.8847 17.0058C16.2613 17.6002 15.4455 17.9513 14.5854 17.9955L14.4 18H3.6C2.70712 17.9999 1.84612 17.6681 1.18418 17.0688C0.522248 16.4696 0.106619 15.6458 0.018 14.7573L6.0363 8.7363L6.1317 8.6508ZM14.4 0C15.3236 -7.22479e-07 16.2119 0.354992 16.8811 0.991551C17.5504 1.62811 17.9493 2.49754 17.9955 3.42L18 3.6V12.2265L15.0363 9.2637L14.9013 9.1404C13.7709 8.1549 12.3363 8.1531 11.2149 9.1251L11.0763 9.2511L10.8 9.5265L8.7363 7.4637L8.6013 7.3404C7.4709 6.3549 6.0363 6.3531 4.9149 7.3251L4.7763 7.4511L0 12.2265V3.6C-7.22479e-07 2.67638 0.354992 1.78809 0.991551 1.11887C1.62811 0.449644 2.49754 0.050681 3.42 0.0045001L3.6 0H14.4ZM11.709 4.5L11.5947 4.5063C11.376 4.53232 11.1743 4.63766 11.0281 4.80237C10.8818 4.96708 10.801 5.17971 10.801 5.4C10.801 5.62029 10.8818 5.83292 11.0281 5.99763C11.1743 6.16234 11.376 6.26768 11.5947 6.2937L11.7 6.3L11.8143 6.2937C12.033 6.26768 12.2346 6.16234 12.3809 5.99763C12.5272 5.83292 12.608 5.62029 12.608 5.4C12.608 5.17971 12.5272 4.96708 12.3809 4.80237C12.2346 4.63766 12.033 4.53232 11.8143 4.5063L11.709 4.5Z" fill="#30C37C"/>
</svg>
