<svg width="20" height="20" viewBox="0 0 20 20" fill="none" xmlns="http://www.w3.org/2000/svg">
<mask id="mask0_3_2589" style="mask-type:alpha" maskUnits="userSpaceOnUse" x="0" y="0" width="20" height="20">
<rect width="20" height="20" fill="#D9D9D9"/>
</mask>
<g mask="url(#mask0_3_2589)">
<path d="M5.44561 17.9169C5.01507 17.9169 4.64733 17.7697 4.34241 17.4754C4.03748 17.1811 3.88501 16.8261 3.88501 16.4105V8.59003C3.88501 8.17444 4.03748 7.81947 4.34241 7.52514C4.64733 7.23079 5.01507 7.08362 5.44561 7.08362H6.47494V5.41695C6.47494 4.37637 6.85291 3.49123 7.60885 2.76153C8.36481 2.03184 9.28179 1.66699 10.3598 1.66699C11.4378 1.66699 12.3548 2.03184 13.1108 2.76153C13.8667 3.49123 14.2447 4.37637 14.2447 5.41695V7.08362H15.274C15.7045 7.08362 16.0723 7.23079 16.3772 7.52514C16.6821 7.81947 16.8346 8.17444 16.8346 8.59003V16.4105C16.8346 16.8261 16.6821 17.1811 16.3772 17.4754C16.0723 17.7697 15.7045 17.9169 15.274 17.9169H5.44561ZM5.44561 16.6669H15.274C15.3515 16.6669 15.4151 16.6429 15.4649 16.5948C15.5148 16.5467 15.5397 16.4853 15.5397 16.4105V8.59003C15.5397 8.51524 15.5148 8.4538 15.4649 8.40572C15.4151 8.35764 15.3515 8.3336 15.274 8.3336H5.44561C5.36813 8.3336 5.30448 8.35764 5.25467 8.40572C5.20486 8.4538 5.17995 8.51524 5.17995 8.59003V16.4105C5.17995 16.4853 5.20486 16.5467 5.25467 16.5948C5.30448 16.6429 5.36813 16.6669 5.44561 16.6669ZM10.3598 13.9586C10.7793 13.9586 11.136 13.8167 11.4298 13.5331C11.7236 13.2495 11.8706 12.9052 11.8706 12.5003C11.8706 12.0953 11.7236 11.7511 11.4298 11.4674C11.136 11.1838 10.7793 11.042 10.3598 11.042C9.94033 11.042 9.58366 11.1838 9.28982 11.4674C8.99597 11.7511 8.84904 12.0953 8.84904 12.5003C8.84904 12.9052 8.99597 13.2495 9.28982 13.5331C9.58366 13.8167 9.94033 13.9586 10.3598 13.9586ZM7.76988 7.08362H12.9497V5.41695C12.9497 4.72251 12.6979 4.13223 12.1943 3.64612C11.6907 3.16001 11.0792 2.91695 10.3598 2.91695C9.64038 2.91695 9.02887 3.16001 8.52528 3.64612C8.02168 4.13223 7.76988 4.72251 7.76988 5.41695V7.08362Z" fill="#363636"/>
</g>
</svg>
