<svg width="20" height="20" viewBox="0 0 20 20" fill="none" xmlns="http://www.w3.org/2000/svg">
<g clip-path="url(#clip0_3_2595)">
<path d="M10 2C5.58969 2 2 5.58969 2 10C2 14.4103 5.58969 18 10 18C11.7033 18 13.2778 17.4543 14.569 16.5456C14.8703 16.3338 14.9429 15.9178 14.7311 15.6165C14.5193 15.3152 14.1034 15.2426 13.8021 15.4544C12.7213 16.2151 11.4194 16.6667 10 16.6667C6.31032 16.6667 3.33334 13.6897 3.33334 10C3.33334 6.31032 6.31032 3.33334 10 3.33334C11.4194 3.33334 12.7213 3.78495 13.8021 4.54558C14.1034 4.75736 14.5193 4.68478 14.7311 4.38347C14.9429 4.08216 14.8703 3.66622 14.569 3.45444C13.2778 2.54573 11.7033 2 10 2ZM15.3268 6.66015C15.0555 6.66023 14.8113 6.82466 14.7093 7.076C14.6072 7.32734 14.6676 7.61547 14.862 7.80469L16.3906 9.33333H9.33333C9.0929 9.32993 8.86928 9.45625 8.74807 9.66391C8.62686 9.87158 8.62686 10.1284 8.74807 10.3361C8.86928 10.5437 9.0929 10.6701 9.33333 10.6667H16.3906L14.862 12.1953C14.6878 12.3625 14.6177 12.6108 14.6786 12.8444C14.7395 13.0781 14.9219 13.2605 15.1555 13.3214C15.3892 13.3823 15.6375 13.3122 15.8047 13.138L18.4128 10.5299C18.5783 10.4036 18.6754 10.2073 18.6751 9.99902C18.6749 9.79079 18.5773 9.59463 18.4115 9.46875L15.8047 6.86197C15.6792 6.73295 15.5068 6.66016 15.3268 6.66015Z" fill="#363636"/>
</g>
<defs>
<clipPath id="clip0_3_2595">
<rect width="20" height="20" fill="white"/>
</clipPath>
</defs>
</svg>
