<svg width="24" height="24" viewBox="0 0 24 24" fill="none" xmlns="http://www.w3.org/2000/svg">
<path d="M4 20H20V22H4V20ZM21 5C20.7348 5 20.4804 5.10536 20.2929 5.29289C20.1054 5.48043 20 5.73478 20 6C20.0002 6.11372 20.0219 6.22637 20.064 6.332C20.1052 6.43416 20.1615 6.52956 20.231 6.615L18.111 8.307L15.994 10L14.24 6.927L12.488 3.855C12.6382 3.76949 12.7649 3.64824 12.857 3.502C12.9506 3.3513 13.0001 3.1774 13 3C13 2.73478 12.8946 2.48043 12.7071 2.29289C12.5196 2.10536 12.2652 2 12 2C11.7348 2 11.4804 2.10536 11.2929 2.29289C11.1054 2.48043 11 2.73478 11 3C10.9999 3.1774 11.0494 3.3513 11.143 3.502C11.2351 3.64824 11.3618 3.76949 11.512 3.855L9.757 6.927L8.002 10L5.886 8.308L3.769 6.615C3.83852 6.52956 3.89482 6.43416 3.936 6.332C3.97812 6.22637 3.99983 6.11372 4 6C4 5.80222 3.94135 5.60888 3.83147 5.44443C3.72159 5.27998 3.56541 5.15181 3.38268 5.07612C3.19996 5.00043 2.99889 4.98063 2.80491 5.01921C2.61093 5.0578 2.43275 5.15304 2.29289 5.29289C2.15304 5.43275 2.0578 5.61093 2.01922 5.80491C1.98063 5.99889 2.00043 6.19996 2.07612 6.38268C2.15181 6.56541 2.27998 6.72159 2.44443 6.83147C2.60888 6.94135 2.80222 7 3 7C3.01387 6.9991 3.02761 6.99675 3.041 6.993C3.05428 6.98823 3.06802 6.98488 3.082 6.983L3.541 12.492L4 18H20L20.459 12.492L20.918 6.983C20.9316 6.98495 20.945 6.9883 20.958 6.993C20.9717 6.99682 20.9858 6.99917 21 7C21.2652 7 21.5196 6.89464 21.7071 6.70711C21.8946 6.51957 22 6.26522 22 6C22 5.73478 21.8946 5.48043 21.7071 5.29289C21.5196 5.10536 21.2652 5 21 5Z" fill="#30C37C"/>
</svg>
