<svg width="16" height="16" viewBox="0 0 16 16" fill="none" xmlns="http://www.w3.org/2000/svg">
<path d="M13.2668 9H2.7335C1.7335 9 1.3335 9.42667 1.3335 10.4867V13.18C1.3335 14.24 1.7335 14.6667 2.7335 14.6667H13.2668C14.2668 14.6667 14.6668 14.24 14.6668 13.18V10.4867C14.6668 9.42667 14.2668 9 13.2668 9Z" fill="#5B6B79"/>
<path opacity="0.4" d="M8.60016 1.33301H2.7335C1.7335 1.33301 1.3335 1.75967 1.3335 2.81967V5.51301C1.3335 6.57301 1.7335 6.99967 2.7335 6.99967H8.60016C9.60016 6.99967 10.0002 6.57301 10.0002 5.51301V2.81967C10.0002 1.75967 9.60016 1.33301 8.60016 1.33301Z" fill="#5B6B79"/>
</svg>
