<svg width="14" height="16" viewBox="0 0 14 16" fill="none" xmlns="http://www.w3.org/2000/svg">
<path d="M10.9375 0.125H3.0625C2.31658 0.125 1.60121 0.421316 1.07376 0.948762C0.546316 1.47621 0.25 2.19158 0.25 2.9375V13.0625C0.25 13.8084 0.546316 14.5238 1.07376 15.0512C1.60121 15.5787 2.31658 15.875 3.0625 15.875H10.9375C11.6834 15.875 12.3988 15.5787 12.9262 15.0512C13.4537 14.5238 13.75 13.8084 13.75 13.0625V2.9375C13.75 2.19158 13.4537 1.47621 12.9262 0.948762C12.3988 0.421316 11.6834 0.125 10.9375 0.125ZM4.1875 2.375H9.8125C10.2601 2.375 10.6893 2.55279 11.0057 2.86926C11.3222 3.18572 11.5 3.61495 11.5 4.0625V5.1875C11.5 5.63505 11.3222 6.06428 11.0057 6.38074C10.6893 6.69721 10.2601 6.875 9.8125 6.875H4.1875C3.73995 6.875 3.31072 6.69721 2.99426 6.38074C2.67779 6.06428 2.5 5.63505 2.5 5.1875V4.0625C2.5 3.61495 2.67779 3.18572 2.99426 2.86926C3.31072 2.55279 3.73995 2.375 4.1875 2.375ZM4.75 9.125C4.75 9.42337 4.63147 9.70952 4.4205 9.9205C4.20952 10.1315 3.92337 10.25 3.625 10.25C3.32663 10.25 3.04048 10.1315 2.8295 9.9205C2.61853 9.70952 2.5 9.42337 2.5 9.125C2.5 8.82663 2.61853 8.54048 2.8295 8.3295C3.04048 8.11853 3.32663 8 3.625 8C3.92337 8 4.20952 8.11853 4.4205 8.3295C4.63147 8.54048 4.75 8.82663 4.75 9.125ZM4.75 12.5C4.75 12.7984 4.63147 13.0845 4.4205 13.2955C4.20952 13.5065 3.92337 13.625 3.625 13.625C3.32663 13.625 3.04048 13.5065 2.8295 13.2955C2.61853 13.0845 2.5 12.7984 2.5 12.5C2.5 12.2016 2.61853 11.9155 2.8295 11.7045C3.04048 11.4935 3.32663 11.375 3.625 11.375C3.92337 11.375 4.20952 11.4935 4.4205 11.7045C4.63147 11.9155 4.75 12.2016 4.75 12.5ZM10.375 10.25C10.0766 10.25 9.79048 10.1315 9.5795 9.9205C9.36853 9.70952 9.25 9.42337 9.25 9.125C9.25 8.82663 9.36853 8.54048 9.5795 8.3295C9.79048 8.11853 10.0766 8 10.375 8C10.6734 8 10.9595 8.11853 11.1705 8.3295C11.3815 8.54048 11.5 8.82663 11.5 9.125C11.5 9.42337 11.3815 9.70952 11.1705 9.9205C10.9595 10.1315 10.6734 10.25 10.375 10.25ZM11.5 12.5C11.5 12.7984 11.3815 13.0845 11.1705 13.2955C10.9595 13.5065 10.6734 13.625 10.375 13.625C10.0766 13.625 9.79048 13.5065 9.5795 13.2955C9.36853 13.0845 9.25 12.7984 9.25 12.5C9.25 12.2016 9.36853 11.9155 9.5795 11.7045C9.79048 11.4935 10.0766 11.375 10.375 11.375C10.6734 11.375 10.9595 11.4935 11.1705 11.7045C11.3815 11.9155 11.5 12.2016 11.5 12.5ZM7 10.25C6.70163 10.25 6.41548 10.1315 6.2045 9.9205C5.99353 9.70952 5.875 9.42337 5.875 9.125C5.875 8.82663 5.99353 8.54048 6.2045 8.3295C6.41548 8.11853 6.70163 8 7 8C7.29837 8 7.58452 8.11853 7.7955 8.3295C8.00647 8.54048 8.125 8.82663 8.125 9.125C8.125 9.42337 8.00647 9.70952 7.7955 9.9205C7.58452 10.1315 7.29837 10.25 7 10.25ZM8.125 12.5C8.125 12.7984 8.00647 13.0845 7.7955 13.2955C7.58452 13.5065 7.29837 13.625 7 13.625C6.70163 13.625 6.41548 13.5065 6.2045 13.2955C5.99353 13.0845 5.875 12.7984 5.875 12.5C5.875 12.2016 5.99353 11.9155 6.2045 11.7045C6.41548 11.4935 6.70163 11.375 7 11.375C7.29837 11.375 7.58452 11.4935 7.7955 11.7045C8.00647 11.9155 8.125 12.2016 8.125 12.5Z" fill="#262D34"/>
</svg>
