<svg width="24" height="24" viewBox="0 0 24 24" fill="none" xmlns="http://www.w3.org/2000/svg">
<g clip-path="url(#clip0_803_4804)">
<path d="M8.4 0C7.76348 0 7.15303 0.252856 6.70294 0.702944C6.25286 1.15303 6 1.76348 6 2.4H16.8C17.4365 2.4 18.047 2.65286 18.4971 3.10294C18.9471 3.55303 19.2 4.16348 19.2 4.8V19.2C19.8365 19.2 20.447 18.9471 20.8971 18.4971C21.3471 18.047 21.6 17.4365 21.6 16.8V2.4C21.6 1.76348 21.3471 1.15303 20.8971 0.702944C20.447 0.252856 19.8365 0 19.2 0L8.4 0Z" fill="#30C37C"/>
<path d="M15.6004 24.0001H4.80039C4.16387 24.0001 3.55342 23.7472 3.10333 23.2972C2.65325 22.8471 2.40039 22.2366 2.40039 21.6001V6.0001C2.40039 5.36358 2.65325 4.75313 3.10333 4.30304C3.55342 3.85295 4.16387 3.6001 4.80039 3.6001H15.6004C16.2369 3.6001 16.8474 3.85295 17.2974 4.30304C17.7475 4.75313 18.0004 5.36358 18.0004 6.0001V21.6001C18.0004 22.2366 17.7475 22.8471 17.2974 23.2972C16.8474 23.7472 16.2369 24.0001 15.6004 24.0001ZM7.80039 19.8001L8.29239 18.4921L9.60039 18.0001L8.29239 17.5081L7.80039 16.2001L7.30839 17.5081L6.00039 18.0001L7.30839 18.4921L7.80039 19.8001ZM11.3788 18.6613L12.5212 15.5881L15.5572 14.4313L12.5212 13.2745L11.3788 10.2001L10.2364 13.2745L7.20039 14.4313L10.2364 15.5881L11.3788 18.6613ZM7.20039 12.6001L7.85679 10.8565L9.60039 10.2001L7.85679 9.5437L7.20039 7.8001L6.54399 9.5437L4.80039 10.2001L6.54399 10.8565L7.20039 12.6001Z" fill="#30C37C"/>
</g>
<defs>
<clipPath id="clip0_803_4804">
<rect width="24" height="24" fill="white"/>
</clipPath>
</defs>
</svg>
