<svg width="16" height="21" viewBox="0 0 16 21" fill="none" xmlns="http://www.w3.org/2000/svg">
<path d="M13.6 21H2.80002C2.1635 21 1.55306 20.7472 1.10297 20.2971C0.652881 19.847 0.400024 19.2365 0.400024 18.6V3.00001C0.400024 2.36349 0.652881 1.75304 1.10297 1.30295C1.55306 0.852862 2.1635 0.600006 2.80002 0.600006H13.6C14.2365 0.600006 14.847 0.852862 15.2971 1.30295C15.7472 1.75304 16 2.36349 16 3.00001V18.6C16 19.2365 15.7472 19.847 15.2971 20.2971C14.847 20.7472 14.2365 21 13.6 21ZM5.80002 16.8L6.29202 15.492L7.60002 15L6.29202 14.508L5.80002 13.2L5.30802 14.508L4.00002 15L5.30802 15.492L5.80002 16.8ZM9.37842 15.6612L10.5208 12.588L13.5568 11.4312L10.5208 10.2744L9.37842 7.20001L8.23602 10.2744L5.20002 11.4312L8.23602 12.588L9.37842 15.6612ZM5.20002 9.60001L5.85642 7.85641L7.60002 7.20001L5.85642 6.54361L5.20002 4.80001L4.54362 6.54361L2.80002 7.20001L4.54362 7.85641L5.20002 9.60001Z" fill="#9097A7"/>
</svg>
