<svg width="56" height="56" viewBox="0 0 56 56" fill="none" xmlns="http://www.w3.org/2000/svg">
<rect width="56" height="56" rx="12" fill="#30C37C" fill-opacity="0.16"/>
<path d="M35.9021 17.2787L33.0688 15.7912C30.5811 14.4864 29.3373 13.8333 28 13.8333C26.6626 13.8333 25.4188 14.485 22.9311 15.7912L22.4764 16.0306L35.1173 23.2542L40.8066 20.4067C39.8915 19.3697 38.4153 18.5947 35.9021 17.2758M41.8096 22.2823L36.1458 25.1157V29.4167C36.1458 29.6985 36.0339 29.9687 35.8346 30.168C35.6354 30.3672 35.3651 30.4792 35.0833 30.4792C34.8015 30.4792 34.5313 30.3672 34.332 30.168C34.1328 29.9687 34.0208 29.6985 34.0208 29.4167V26.1782L29.0625 28.6573V42.0307C30.0796 41.7771 31.2371 41.1707 33.0688 40.2088L35.9021 38.7213C38.9494 37.1219 40.4737 36.3229 41.3209 34.885C42.1666 33.4485 42.1666 31.6592 42.1666 28.085V27.9192C42.1666 25.2375 42.1666 23.5602 41.8096 22.2823ZM26.9375 42.0307V28.6573L14.1903 22.2823C13.8333 23.5602 13.8333 25.2375 13.8333 27.9164V28.0822C13.8333 31.6592 13.8333 33.4485 14.6791 34.885C15.5262 36.3229 17.0506 37.1233 20.0978 38.7227L22.9311 40.2088C24.7629 41.1707 25.9203 41.7771 26.9375 42.0307ZM15.1933 20.4081L28 26.8114L32.8322 24.396L20.2437 17.2022L20.0978 17.2787C17.5861 18.5962 16.1085 19.3711 15.1933 20.4095" fill="#30C37C"/>
</svg>
