<svg width="56" height="56" viewBox="0 0 56 56" fill="none" xmlns="http://www.w3.org/2000/svg">
<rect width="56" height="56" rx="12" fill="#30C37C" fill-opacity="0.16"/>
<path d="M20.9166 14.8333H15.25C14.8743 14.8333 14.5139 14.9826 14.2482 15.2483C13.9826 15.5139 13.8333 15.8743 13.8333 16.25V41.75C13.8333 42.1257 13.9826 42.4861 14.2482 42.7517C14.5139 43.0174 14.8743 43.1667 15.25 43.1667H20.9166C21.2924 43.1667 21.6527 43.0174 21.9184 42.7517C22.1841 42.4861 22.3333 42.1257 22.3333 41.75V16.25C22.3333 15.8743 22.1841 15.5139 21.9184 15.2483C21.6527 14.9826 21.2924 14.8333 20.9166 14.8333ZM18.0833 41.75C17.5229 41.75 16.9751 41.5838 16.5092 41.2725C16.0433 40.9612 15.6801 40.5187 15.4657 40.0009C15.2512 39.4832 15.1951 38.9135 15.3044 38.3639C15.4137 37.8143 15.6836 37.3094 16.0798 36.9132C16.4761 36.5169 16.9809 36.2471 17.5306 36.1378C18.0802 36.0284 18.6499 36.0846 19.1676 36.299C19.6853 36.5135 20.1278 36.8766 20.4391 37.3425C20.7505 37.8085 20.9166 38.3563 20.9166 38.9167C20.9166 39.6681 20.6181 40.3888 20.0868 40.9201C19.5554 41.4515 18.8348 41.75 18.0833 41.75ZM20.9166 29H15.25V16.25H20.9166V29ZM19.5 38.9167C19.5 39.1969 19.4169 39.4708 19.2612 39.7037C19.1056 39.9367 18.8843 40.1183 18.6254 40.2255C18.3666 40.3327 18.0817 40.3608 17.8069 40.3061C17.5321 40.2514 17.2797 40.1165 17.0816 39.9184C16.8835 39.7203 16.7485 39.4678 16.6939 39.193C16.6392 38.9182 16.6673 38.6334 16.7745 38.3745C16.8817 38.1157 17.0633 37.8944 17.2963 37.7387C17.5292 37.5831 17.8031 37.5 18.0833 37.5C18.459 37.5 18.8194 37.6493 19.085 37.9149C19.3507 38.1806 19.5 38.5409 19.5 38.9167ZM30.8333 14.8333H25.1666C24.7909 14.8333 24.4306 14.9826 24.1649 15.2483C23.8992 15.5139 23.75 15.8743 23.75 16.25V41.75C23.75 42.1257 23.8992 42.4861 24.1649 42.7517C24.4306 43.0174 24.7909 43.1667 25.1666 43.1667H30.8333C31.209 43.1667 31.5694 43.0174 31.835 42.7517C32.1007 42.4861 32.25 42.1257 32.25 41.75V16.25C32.25 15.8743 32.1007 15.5139 31.835 15.2483C31.5694 14.9826 31.209 14.8333 30.8333 14.8333ZM28 41.75C27.4396 41.75 26.8918 41.5838 26.4259 41.2725C25.9599 40.9612 25.5968 40.5187 25.3823 40.0009C25.1679 39.4832 25.1118 38.9135 25.2211 38.3639C25.3304 37.8143 25.6003 37.3094 25.9965 36.9132C26.3928 36.5169 26.8976 36.2471 27.4472 36.1378C27.9968 36.0284 28.5665 36.0846 29.0842 36.299C29.602 36.5135 30.0445 36.8766 30.3558 37.3425C30.6671 37.8085 30.8333 38.3563 30.8333 38.9167C30.8333 39.6681 30.5348 40.3888 30.0034 40.9201C29.4721 41.4515 28.7514 41.75 28 41.75ZM30.8333 29H25.1666V16.25H30.8333V29ZM29.4166 38.9167C29.4166 39.1969 29.3336 39.4708 29.1779 39.7037C29.0222 39.9367 28.801 40.1183 28.5421 40.2255C28.2833 40.3327 27.9984 40.3608 27.7236 40.3061C27.4488 40.2514 27.1964 40.1165 26.9982 39.9184C26.8001 39.7203 26.6652 39.4678 26.6105 39.193C26.5559 38.9182 26.5839 38.6334 26.6911 38.3745C26.7984 38.1157 26.9799 37.8944 27.2129 37.7387C27.4459 37.5831 27.7198 37.5 28 37.5C28.3757 37.5 28.736 37.6493 29.0017 37.9149C29.2674 38.1806 29.4166 38.5409 29.4166 38.9167ZM40.75 14.8333H35.0833C34.7076 14.8333 34.3473 14.9826 34.0816 15.2483C33.8159 15.5139 33.6666 15.8743 33.6666 16.25V41.75C33.6666 42.1257 33.8159 42.4861 34.0816 42.7517C34.3473 43.0174 34.7076 43.1667 35.0833 43.1667H40.75C41.1257 43.1667 41.486 43.0174 41.7517 42.7517C42.0174 42.4861 42.1666 42.1257 42.1666 41.75V16.25C42.1666 15.8743 42.0174 15.5139 41.7517 15.2483C41.486 14.9826 41.1257 14.8333 40.75 14.8333ZM37.9166 41.75C37.3563 41.75 36.8085 41.5838 36.3425 41.2725C35.8766 40.9612 35.5134 40.5187 35.299 40.0009C35.0845 39.4832 35.0284 38.9135 35.1378 38.3639C35.2471 37.8143 35.5169 37.3094 35.9132 36.9132C36.3094 36.5169 36.8143 36.2471 37.3639 36.1378C37.9135 36.0284 38.4832 36.0846 39.0009 36.299C39.5186 36.5135 39.9611 36.8766 40.2725 37.3425C40.5838 37.8085 40.75 38.3563 40.75 38.9167C40.75 39.6681 40.4515 40.3888 39.9201 40.9201C39.3888 41.4515 38.6681 41.75 37.9166 41.75ZM40.75 29H35.0833V16.25H40.75V29ZM39.3333 38.9167C39.3333 39.1969 39.2502 39.4708 39.0946 39.7037C38.9389 39.9367 38.7176 40.1183 38.4588 40.2255C38.1999 40.3327 37.9151 40.3608 37.6403 40.3061C37.3655 40.2514 37.113 40.1165 36.9149 39.9184C36.7168 39.7203 36.5819 39.4678 36.5272 39.193C36.4725 38.9182 36.5006 38.6334 36.6078 38.3745C36.715 38.1157 36.8966 37.8944 37.1296 37.7387C37.3626 37.5831 37.6365 37.5 37.9166 37.5C38.2924 37.5 38.6527 37.6493 38.9184 37.9149C39.1841 38.1806 39.3333 38.5409 39.3333 38.9167Z" fill="#30C37C"/>
</svg>
