<svg width="24" height="24" viewBox="0 0 24 24" fill="none" xmlns="http://www.w3.org/2000/svg">
<path fill-rule="evenodd" clip-rule="evenodd" d="M7.19999 2.40039C6.56347 2.40039 5.95302 2.65325 5.50293 3.10333C5.05284 3.55342 4.79999 4.16387 4.79999 4.80039V19.2004C4.79999 19.8369 5.05284 20.4474 5.50293 20.8974C5.95302 21.3475 6.56347 21.6004 7.19999 21.6004H16.8C17.4365 21.6004 18.047 21.3475 18.497 20.8974C18.9471 20.4474 19.2 19.8369 19.2 19.2004V8.89719C19.1999 8.26072 18.9469 7.65037 18.4968 7.20039L14.4 3.10359C13.95 2.65347 13.3397 2.40053 12.7032 2.40039H7.19999ZM9.59999 14.4004C9.59999 14.0821 9.47356 13.7769 9.24852 13.5519C9.02347 13.3268 8.71825 13.2004 8.39999 13.2004C8.08173 13.2004 7.7765 13.3268 7.55146 13.5519C7.32642 13.7769 7.19999 14.0821 7.19999 14.4004V18.0004C7.19999 18.3187 7.32642 18.6239 7.55146 18.8489C7.7765 19.074 8.08173 19.2004 8.39999 19.2004C8.71825 19.2004 9.02347 19.074 9.24852 18.8489C9.47356 18.6239 9.59999 18.3187 9.59999 18.0004V14.4004ZM12 10.8004C12.3182 10.8004 12.6235 10.9268 12.8485 11.1519C13.0736 11.3769 13.2 11.6821 13.2 12.0004V18.0004C13.2 18.3187 13.0736 18.6239 12.8485 18.8489C12.6235 19.074 12.3182 19.2004 12 19.2004C11.6817 19.2004 11.3765 19.074 11.1515 18.8489C10.9264 18.6239 10.8 18.3187 10.8 18.0004V12.0004C10.8 11.6821 10.9264 11.3769 11.1515 11.1519C11.3765 10.9268 11.6817 10.8004 12 10.8004ZM16.8 9.60039C16.8 9.28213 16.6736 8.97691 16.4485 8.75186C16.2235 8.52682 15.9182 8.40039 15.6 8.40039C15.2817 8.40039 14.9765 8.52682 14.7515 8.75186C14.5264 8.97691 14.4 9.28213 14.4 9.60039V18.0004C14.4 18.3187 14.5264 18.6239 14.7515 18.8489C14.9765 19.074 15.2817 19.2004 15.6 19.2004C15.9182 19.2004 16.2235 19.074 16.4485 18.8489C16.6736 18.6239 16.8 18.3187 16.8 18.0004V9.60039Z" fill="#30C37C"/>
</svg>
