<svg width="56" height="56" viewBox="0 0 56 56" fill="none" xmlns="http://www.w3.org/2000/svg">
<rect width="56" height="56" rx="12" fill="#30C37C" fill-opacity="0.16"/>
<path d="M42.1667 30.0938V36.5C42.1667 37.6272 41.7189 38.7082 40.9219 39.5052C40.1248 40.3022 39.0438 40.75 37.9167 40.75H18.0833C16.9562 40.75 15.8752 40.3022 15.0781 39.5052C14.2811 38.7082 13.8333 37.6272 13.8333 36.5V30.0938L14.6168 30.4863C18.7689 32.5776 23.3534 33.6667 28.0025 33.6662C32.6515 33.6657 37.2358 32.5756 41.3875 30.4834L42.1667 30.0938ZM30.8333 13.8333C31.9605 13.8333 33.0415 14.2811 33.8385 15.0781C34.6356 15.8752 35.0833 16.9562 35.0833 18.0833V19.5H37.9167C39.0438 19.5 40.1248 19.9478 40.9219 20.7448C41.7189 21.5418 42.1667 22.6228 42.1667 23.75V26.9262L40.1167 27.9518C36.449 29.8007 32.4068 30.7857 28.2997 30.8314C24.1926 30.8771 20.1295 29.9822 16.4216 28.2153L15.505 27.762L13.8333 26.9262V23.75C13.8333 22.6228 14.2811 21.5418 15.0781 20.7448C15.8752 19.9478 16.9562 19.5 18.0833 19.5H20.9167V18.0833C20.9167 16.9562 21.3644 15.8752 22.1615 15.0781C22.9585 14.2811 24.0395 13.8333 25.1667 13.8333H30.8333ZM28 25.1667C27.6243 25.1667 27.2639 25.3159 26.9983 25.5816C26.7326 25.8473 26.5833 26.2076 26.5833 26.5833C26.5824 26.7694 26.6181 26.9538 26.6885 27.126C26.7588 27.2982 26.8624 27.4549 26.9933 27.5871C27.1242 27.7194 27.2798 27.8245 27.4513 27.8965C27.6228 27.9686 27.8069 28.0062 27.9929 28.0071C28.179 28.008 28.3634 27.9723 28.5356 27.902C28.7078 27.8316 28.8645 27.7281 28.9967 27.5972C29.1289 27.4663 29.2341 27.3106 29.3061 27.1391C29.3782 26.9676 29.4157 26.7835 29.4167 26.5975C29.4167 25.8013 28.782 25.1667 28 25.1667ZM30.8333 16.6667H25.1667C24.7909 16.6667 24.4306 16.8159 24.1649 17.0816C23.8993 17.3473 23.75 17.7076 23.75 18.0833V19.5H32.25V18.0833C32.25 17.7076 32.1007 17.3473 31.8351 17.0816C31.5694 16.8159 31.2091 16.6667 30.8333 16.6667Z" fill="#30C37C"/>
</svg>
