<svg width="120" height="120" viewBox="0 0 120 120" fill="none" xmlns="http://www.w3.org/2000/svg">
<path d="M41.1436 57.705C43.8475 55.4567 46.5751 55.4567 49.3441 57.7701L49.9831 58.3499L79.4836 87.8504L80.0398 88.3415C81.1782 89.2239 82.5995 89.6608 84.037 89.5701C85.4746 89.4794 86.8297 88.8674 87.8482 87.8489C88.8667 86.8303 89.4787 85.4752 89.5694 84.0377C89.6601 82.6001 89.2233 81.1789 88.3409 80.0404L87.8498 79.4842L80.2054 71.834L81.9331 70.1004L82.5603 69.5383C85.2642 67.29 87.9918 67.29 90.7608 69.6034L91.3998 70.1832L119.054 97.8437C118.494 103.478 115.933 108.725 111.834 112.632C107.736 116.539 102.373 118.847 96.7188 119.138L95.5 119.167H24.5C18.6301 119.167 12.9699 116.985 8.61825 113.046C4.26664 109.106 1.53426 103.69 0.951677 97.8496L40.5164 58.2671L41.1436 57.705ZM95.5 0.833984C101.572 0.83398 107.412 3.16773 111.811 7.35252C116.211 11.5373 118.834 17.253 119.137 23.3173L119.167 24.5007V81.2119L99.6831 61.7342L98.7956 60.9237C91.3643 54.4449 81.9331 54.4331 74.5609 60.8231L73.6498 61.6514L71.8333 63.4619L58.2664 49.9009L57.3789 49.0903C49.9476 42.6116 40.5164 42.5997 33.1443 48.9897L32.2331 49.8181L0.833344 81.2119V24.5007C0.833339 18.4287 3.16708 12.5891 7.35188 8.18951C11.5367 3.78998 17.2523 1.16717 23.3167 0.863568L24.5 0.833984H95.5ZM77.8092 30.4173L77.0578 30.4587C75.6197 30.6298 74.2943 31.3223 73.3327 32.4051C72.3711 33.4879 71.8399 34.8858 71.8399 36.334C71.8399 37.7822 72.3711 39.1801 73.3327 40.2629C74.2943 41.3457 75.6197 42.0382 77.0578 42.2092L77.75 42.2507L78.5014 42.2092C79.9395 42.0382 81.2648 41.3457 82.2265 40.2629C83.1881 39.1801 83.7193 37.7822 83.7193 36.334C83.7193 34.8858 83.1881 33.4879 82.2265 32.4051C81.2648 31.3223 79.9395 30.6298 78.5014 30.4587L77.8092 30.4173Z" fill="#DBDBDB"/>
</svg>
