<svg width="42" height="42" viewBox="0 0 42 42" fill="none" xmlns="http://www.w3.org/2000/svg">
<rect width="42" height="42" rx="10" fill="#EBEBEB"/>
<g clip-path="url(#clip0_762_22979)">
<path d="M14.5029 26.1445V28.3789H13.3496C13.2024 28.3789 13.0566 28.3498 12.9206 28.2933C12.7846 28.2367 12.6612 28.1538 12.5574 28.0494C12.4535 27.945 12.3714 27.8211 12.3156 27.6848C12.2599 27.5485 12.2316 27.4025 12.2324 27.2553C12.2325 27.2185 12.2345 27.1818 12.2385 27.1453C12.2672 26.8706 12.3967 26.6164 12.6019 26.4316C12.8071 26.2468 13.0735 26.1445 13.3496 26.1445H14.5029Z" fill="#185B37"/>
<path d="M29.7678 25.7272V26.1405L15.381 26.144H13.3495C13.0732 26.144 12.8068 26.2463 12.6016 26.4312C12.3964 26.6161 12.267 26.8704 12.2383 27.1452L12.2572 19.2608C12.2572 18.9645 12.3749 18.6804 12.5844 18.4708C12.7939 18.2613 13.0781 18.1436 13.3744 18.1436H14.5027L29.7678 18.1406V25.7272Z" fill="#107C41"/>
<path d="M29.768 26.1406V29.7556C29.768 30.3509 29.5315 30.9219 29.1106 31.3428C28.6896 31.7638 28.1186 32.0003 27.5233 32.0003H16.748C16.4532 32.0003 16.1613 31.9423 15.8889 31.8295C15.6165 31.7167 15.369 31.5514 15.1605 31.343C14.9521 31.1345 14.7867 30.8871 14.6738 30.6147C14.561 30.3423 14.5029 30.0504 14.5029 29.7556V26.1441H15.3812L29.768 26.1406Z" fill="white"/>
<path d="M25.7284 10.1016C25.8687 10.1588 25.9983 10.2394 26.1117 10.34L29.3171 13.1897C29.5427 13.3909 29.694 13.6621 29.7468 13.9597H27.0742C26.717 13.9597 26.3745 13.8178 26.122 13.5653C25.8694 13.3128 25.7275 12.9702 25.7275 12.6131V10.1016H25.7284Z" fill="#A3A2A3"/>
<path d="M25.2146 10C25.3907 9.99985 25.565 10.0345 25.7277 10.1018V12.6134C25.7277 12.9705 25.8695 13.313 26.1221 13.5656C26.3746 13.8181 26.7171 13.96 27.0743 13.96H29.747C29.7611 14.038 29.7682 14.1171 29.768 14.1963V18.1404L14.5029 18.1434V12.6937C14.5029 11.9794 14.7867 11.2943 15.2917 10.7891C15.7968 10.284 16.4819 10.0001 17.1962 10H25.2146Z" fill="white"/>
<path d="M25.0623 23.283L25.8468 22.1373L25.1867 21.1184C25.1245 21.0195 25.0774 20.935 25.0456 20.8648C25.0153 20.7931 25.0001 20.7245 25.0001 20.6591C25.0001 20.5922 25.0296 20.5324 25.0886 20.4798C25.1492 20.4255 25.2225 20.3984 25.3087 20.3984C25.4075 20.3984 25.4841 20.4279 25.5383 20.4869C25.5941 20.5443 25.6706 20.652 25.7679 20.8098L26.2941 21.6613L26.8562 20.8098C26.9024 20.7381 26.9415 20.6767 26.9734 20.6257C27.0068 20.5746 27.0387 20.5324 27.069 20.4989C27.0993 20.4654 27.1328 20.4407 27.1695 20.4247C27.2078 20.4072 27.2516 20.3984 27.301 20.3984C27.3903 20.3984 27.4629 20.4255 27.5187 20.4798C27.5761 20.5324 27.6048 20.5954 27.6048 20.6687C27.6048 20.7755 27.5434 20.9207 27.4206 21.104L26.7294 22.1373L27.4732 23.283C27.5402 23.3834 27.5889 23.4671 27.6191 23.5341C27.6494 23.5995 27.6646 23.6617 27.6646 23.7207C27.6646 23.7765 27.651 23.8275 27.6239 23.8737C27.5968 23.92 27.5586 23.9567 27.5091 23.9838C27.4597 24.0109 27.4039 24.0244 27.3417 24.0244C27.2747 24.0244 27.2181 24.0101 27.1719 23.9814C27.1256 23.9543 27.0882 23.92 27.0595 23.8785C27.0308 23.8371 26.9773 23.7565 26.8992 23.637L26.2821 22.6659L25.6268 23.6657C25.5757 23.7454 25.5391 23.8012 25.5167 23.8331C25.496 23.865 25.4705 23.8961 25.4402 23.9264C25.4099 23.9567 25.374 23.9806 25.3326 23.9981C25.2911 24.0157 25.2425 24.0244 25.1867 24.0244C25.1006 24.0244 25.0288 23.9981 24.9714 23.9455C24.9156 23.8929 24.8877 23.8163 24.8877 23.7159C24.8877 23.5979 24.9459 23.4536 25.0623 23.283Z" fill="white"/>
<path d="M24.3929 22.9122C24.3929 23.1243 24.3379 23.3149 24.2279 23.4839C24.1194 23.6529 23.96 23.7852 23.7495 23.8809C23.539 23.9766 23.2895 24.0244 23.0009 24.0244C22.6549 24.0244 22.3694 23.9591 22.1446 23.8283C21.9851 23.7342 21.8552 23.6091 21.7547 23.4528C21.6559 23.2949 21.6064 23.1418 21.6064 22.9936C21.6064 22.9075 21.6359 22.8341 21.6949 22.7735C21.7555 22.7113 21.8321 22.6802 21.9246 22.6802C21.9995 22.6802 22.0625 22.7041 22.1135 22.752C22.1661 22.7998 22.2108 22.8708 22.2475 22.9649C22.2921 23.0765 22.3399 23.1698 22.391 23.2447C22.4436 23.3196 22.5169 23.3818 22.611 23.4313C22.7051 23.4791 22.8287 23.503 22.9817 23.503C23.1922 23.503 23.3628 23.4544 23.4936 23.3571C23.6259 23.2583 23.6921 23.1355 23.6921 22.9888C23.6921 22.8724 23.6562 22.7783 23.5845 22.7065C23.5143 22.6332 23.4226 22.5774 23.3094 22.5391C23.1978 22.5008 23.0479 22.4602 22.8598 22.4171C22.6078 22.3581 22.3965 22.2896 22.2259 22.2114C22.0569 22.1317 21.9222 22.0241 21.8217 21.8885C21.7228 21.7514 21.6734 21.5816 21.6734 21.3791C21.6734 21.1861 21.726 21.0147 21.8313 20.8648C21.9365 20.715 22.0888 20.6001 22.2881 20.5204C22.4874 20.4391 22.7218 20.3984 22.9913 20.3984C23.2066 20.3984 23.3923 20.4255 23.5486 20.4798C23.7065 20.5324 23.8372 20.6033 23.9409 20.6926C24.0445 20.7803 24.1202 20.8728 24.1681 20.9701C24.2159 21.0673 24.2398 21.1622 24.2398 21.2547C24.2398 21.3392 24.2095 21.4158 24.1489 21.4843C24.0899 21.5513 24.0158 21.5848 23.9265 21.5848C23.8452 21.5848 23.783 21.5648 23.7399 21.525C23.6985 21.4835 23.653 21.4166 23.6036 21.3241C23.5398 21.1917 23.4633 21.0889 23.374 21.0155C23.2847 20.9406 23.1412 20.9031 22.9435 20.9031C22.7601 20.9031 22.6118 20.9438 22.4986 21.0251C22.387 21.1048 22.3312 21.2013 22.3312 21.3145C22.3312 21.3847 22.3503 21.4453 22.3886 21.4963C22.4268 21.5473 22.4795 21.5912 22.5464 21.6278C22.6134 21.6645 22.6812 21.6932 22.7497 21.7139C22.8183 21.7347 22.9315 21.765 23.0894 21.8048C23.2871 21.8511 23.4657 21.9021 23.6251 21.9579C23.7862 22.0137 23.9225 22.0815 24.0341 22.1612C24.1474 22.2409 24.2351 22.3422 24.2972 22.465C24.361 22.5862 24.3929 22.7352 24.3929 22.9122Z" fill="white"/>
<path d="M19.4535 20.829V23.381H20.8934C21.0082 23.381 21.0959 23.4089 21.1565 23.4647C21.2187 23.5206 21.2498 23.5907 21.2498 23.6752C21.2498 23.7613 21.2195 23.8315 21.1589 23.8857C21.0983 23.9383 21.0098 23.9646 20.8934 23.9646H19.1785C19.0238 23.9646 18.9122 23.9304 18.8436 23.8618C18.7766 23.7932 18.7432 23.6824 18.7432 23.5293V20.829C18.7432 20.6855 18.7751 20.5778 18.8388 20.5061C18.9042 20.4343 18.9895 20.3984 19.0948 20.3984C19.2016 20.3984 19.2877 20.4343 19.3531 20.5061C19.42 20.5762 19.4535 20.6839 19.4535 20.829Z" fill="white"/>
<path d="M15.4715 23.283L16.256 22.1373L15.5959 21.1184C15.5337 21.0195 15.4866 20.935 15.4547 20.8648C15.4244 20.7931 15.4093 20.7245 15.4093 20.6591C15.4093 20.5922 15.4388 20.5324 15.4978 20.4798C15.5584 20.4255 15.6317 20.3984 15.7178 20.3984C15.8167 20.3984 15.8932 20.4279 15.9474 20.4869C16.0033 20.5443 16.0798 20.652 16.1771 20.8098L16.7033 21.6613L17.2653 20.8098C17.3116 20.7381 17.3506 20.6767 17.3825 20.6257C17.416 20.5746 17.4479 20.5324 17.4782 20.4989C17.5085 20.4654 17.542 20.4407 17.5787 20.4247C17.6169 20.4072 17.6608 20.3984 17.7102 20.3984C17.7995 20.3984 17.8721 20.4255 17.9279 20.4798C17.9853 20.5324 18.014 20.5954 18.014 20.6687C18.014 20.7755 17.9526 20.9207 17.8298 21.104L17.1386 22.1373L17.8824 23.283C17.9494 23.3834 17.998 23.4671 18.0283 23.5341C18.0586 23.5995 18.0738 23.6617 18.0738 23.7207C18.0738 23.7765 18.0602 23.8275 18.0331 23.8737C18.006 23.92 17.9677 23.9567 17.9183 23.9838C17.8689 24.0109 17.8131 24.0244 17.7509 24.0244C17.6839 24.0244 17.6273 24.0101 17.5811 23.9814C17.5348 23.9543 17.4973 23.92 17.4686 23.8785C17.4399 23.8371 17.3865 23.7565 17.3084 23.637L16.6913 22.6659L16.0359 23.6657C15.9849 23.7454 15.9482 23.8012 15.9259 23.8331C15.9052 23.865 15.8797 23.8961 15.8494 23.9264C15.8191 23.9567 15.7832 23.9806 15.7418 23.9981C15.7003 24.0157 15.6517 24.0244 15.5959 24.0244C15.5097 24.0244 15.438 23.9981 15.3806 23.9455C15.3248 23.8929 15.2969 23.8163 15.2969 23.7159C15.2969 23.5979 15.3551 23.4536 15.4715 23.283Z" fill="white"/>
</g>
<defs>
<clipPath id="clip0_762_22979">
<rect width="22" height="22" fill="white" transform="translate(10 10)"/>
</clipPath>
</defs>
</svg>
