<svg width="18" height="18" viewBox="0 0 18 18" fill="none" xmlns="http://www.w3.org/2000/svg">
<mask id="mask0_762_23102" style="mask-type:alpha" maskUnits="userSpaceOnUse" x="0" y="0" width="18" height="18">
<rect width="18" height="18" rx="9" fill="#D9D9D9"/>
</mask>
<g mask="url(#mask0_762_23102)">
<path d="M3 13.5C2.58579 13.5 2.25 13.1642 2.25 12.75C2.25 12.3358 2.58579 12 3 12H6C6.41421 12 6.75 12.3358 6.75 12.75C6.75 13.1642 6.41421 13.5 6 13.5H3ZM3 9.75C2.58579 9.75 2.25 9.41421 2.25 9C2.25 8.58579 2.58579 8.25 3 8.25H10.5C10.9142 8.25 11.25 8.58579 11.25 9C11.25 9.41421 10.9142 9.75 10.5 9.75H3ZM3 6C2.58579 6 2.25 5.66421 2.25 5.25C2.25 4.83579 2.58579 4.5 3 4.5H15C15.4142 4.5 15.75 4.83579 15.75 5.25C15.75 5.66421 15.4142 6 15 6H3Z" fill="white"/>
</g>
</svg>
