<svg width="22" height="22" viewBox="0 0 22 22" fill="none" xmlns="http://www.w3.org/2000/svg">
<path d="M4.58333 2.75H17.4167C17.9029 2.75 18.3692 2.94315 18.713 3.28697C19.0568 3.63079 19.25 4.0971 19.25 4.58333V17.4167C19.25 18.4342 18.4342 19.25 17.4167 19.25H4.58333C4.0971 19.25 3.63079 19.0568 3.28697 18.713C2.94315 18.3692 2.75 17.9029 2.75 17.4167V4.58333C2.75 3.575 3.575 2.75 4.58333 2.75ZM14.6667 15.5833V13.75H7.33333V15.5833H14.6667ZM14.6667 10.0833L11 6.41667L7.33333 10.0833H9.625V12.8333H12.375V10.0833H14.6667Z" fill="white"/>
</svg>
