<svg width="18" height="18" viewBox="0 0 18 18" fill="none" xmlns="http://www.w3.org/2000/svg">
<path d="M2.58333 0.75H15.4167C15.9029 0.75 16.3692 0.943154 16.713 1.28697C17.0568 1.63079 17.25 2.0971 17.25 2.58333V15.4167C17.25 16.4342 16.4342 17.25 15.4167 17.25H2.58333C2.0971 17.25 1.63079 17.0568 1.28697 16.713C0.943154 16.3692 0.75 15.9029 0.75 15.4167V2.58333C0.75 1.575 1.575 0.75 2.58333 0.75ZM12.6667 13.5833V11.75H5.33333V13.5833H12.6667ZM12.6667 8.08333L9 4.41667L5.33333 8.08333H7.625V10.8333H10.375V8.08333H12.6667Z" fill="white"/>
</svg>
