<svg width="44" height="33" viewBox="0 0 44 33" fill="none" xmlns="http://www.w3.org/2000/svg">
<rect x="0.5" y="1.25" width="43" height="31.08" rx="7.5" fill="#EBEBEB"/>
<rect x="0.5" y="1.25" width="43" height="31.08" rx="7.5" stroke="#EBEBEB"/>
<path d="M19.75 11.6151C20.4775 11.3839 21.2366 11.2675 22 11.2701C25.1365 11.2701 27.271 13.1451 28.5438 14.7981C29.1813 15.6276 29.5 16.0408 29.5 17.2701C29.5 18.5001 29.1813 18.9133 28.5438 19.7421C27.271 21.3951 25.1365 23.2701 22 23.2701C18.8635 23.2701 16.729 21.3951 15.4563 19.7421C14.8188 18.9141 14.5 18.4993 14.5 17.2701C14.5 16.0401 14.8188 15.6268 15.4563 14.7981C15.8451 14.2902 16.2781 13.8176 16.75 13.3858" stroke="#262D34" stroke-width="1.125" stroke-linecap="round"/>
<path d="M24.25 17.27C24.25 17.8668 24.0129 18.4391 23.591 18.861C23.169 19.283 22.5967 19.52 22 19.52C21.4033 19.52 20.831 19.283 20.409 18.861C19.9871 18.4391 19.75 17.8668 19.75 17.27C19.75 16.6733 19.9871 16.101 20.409 15.679C20.831 15.2571 21.4033 15.02 22 15.02C22.5967 15.02 23.169 15.2571 23.591 15.679C24.0129 16.101 24.25 16.6733 24.25 17.27Z" stroke="#262D34" stroke-width="1.125"/>
</svg>
