<svg width="19" height="18" viewBox="0 0 19 18" fill="none" xmlns="http://www.w3.org/2000/svg">
<path fill-rule="evenodd" clip-rule="evenodd" d="M1.8176 1.3176C0.5 2.637 0.5 4.7574 0.5 9C0.5 13.2426 0.5 15.3639 1.8176 16.6815C3.137 18 5.2574 18 9.5 18C13.7426 18 15.8639 18 17.1815 16.6815C18.5 15.3648 18.5 13.2426 18.5 9C18.5 4.7574 18.5 2.6361 17.1815 1.3176C15.8648 0 13.7426 0 9.5 0C5.2574 0 3.1361 0 1.8176 1.3176ZM14.5184 7.632C14.6279 7.49396 14.6791 7.31856 14.6611 7.14327C14.643 6.96798 14.5571 6.80671 14.4218 6.6939C14.2864 6.58109 14.1123 6.52569 13.9366 6.53953C13.7609 6.55338 13.5976 6.63537 13.4816 6.768L11.8643 8.7084C11.5313 9.1089 11.3252 9.3528 11.1569 9.5049C11.1129 9.5476 11.0636 9.5845 11.0102 9.6147L11.0003 9.6192L10.9931 9.6156L10.9904 9.6147C10.9367 9.58456 10.8871 9.54766 10.8428 9.5049C10.6745 9.3519 10.4693 9.1089 10.1354 8.7084L9.8726 8.3934C9.5774 8.0379 9.3101 7.7184 9.0617 7.4934C8.7908 7.2486 8.4497 7.0308 7.9997 7.0308C7.5497 7.0308 7.2095 7.2486 6.9377 7.4934C6.6893 7.7184 6.4229 8.0379 6.1277 8.3934L4.4807 10.368C4.42397 10.4361 4.38121 10.5148 4.35488 10.5994C4.32854 10.6841 4.31913 10.7731 4.3272 10.8614C4.34349 11.0397 4.42994 11.2043 4.56755 11.3188C4.70516 11.4334 4.88264 11.4886 5.06096 11.4724C5.23928 11.4561 5.40383 11.3696 5.5184 11.232L7.1357 9.2916C7.4687 8.8911 7.6748 8.6472 7.8431 8.4951C7.88712 8.4524 7.93642 8.4155 7.9898 8.3853L7.9961 8.3826L7.9997 8.3808L8.0096 8.3853C8.06329 8.41544 8.1129 8.45234 8.1572 8.4951C8.3255 8.6481 8.5307 8.8911 8.8646 9.2916L9.1274 9.6066C9.4235 9.9621 9.6899 10.2816 9.9383 10.5066C10.2092 10.7514 10.5503 10.9692 11.0003 10.9692C11.4503 10.9692 11.7905 10.7514 12.0623 10.5066C12.3107 10.2816 12.5771 9.9621 12.8723 9.6066L14.5184 7.632Z" fill="#30C37C"/>
</svg>
