<svg width="18" height="18" viewBox="0 0 18 18" fill="none" xmlns="http://www.w3.org/2000/svg">
<path fill-rule="evenodd" clip-rule="evenodd" d="M1.3176 1.3176C0 2.637 0 4.7574 0 9C0 13.2426 0 15.3639 1.3176 16.6815C2.637 18 4.7574 18 9 18C13.2426 18 15.3639 18 16.6815 16.6815C18 15.3648 18 13.2426 18 9C18 4.7574 18 2.6361 16.6815 1.3176C15.3648 0 13.2426 0 9 0C4.7574 0 2.6361 0 1.3176 1.3176ZM14.0184 7.632C14.1279 7.49396 14.1791 7.31856 14.1611 7.14327C14.143 6.96798 14.0571 6.80671 13.9218 6.6939C13.7864 6.58109 13.6123 6.52569 13.4366 6.53953C13.2609 6.55338 13.0976 6.63537 12.9816 6.768L11.3643 8.7084C11.0313 9.1089 10.8252 9.3528 10.6569 9.5049C10.6129 9.5476 10.5636 9.5845 10.5102 9.6147L10.5003 9.6192L10.4931 9.6156L10.4904 9.6147C10.4367 9.58456 10.3871 9.54766 10.3428 9.5049C10.1745 9.3519 9.9693 9.1089 9.6354 8.7084L9.3726 8.3934C9.0774 8.0379 8.8101 7.7184 8.5617 7.4934C8.2908 7.2486 7.9497 7.0308 7.4997 7.0308C7.0497 7.0308 6.7095 7.2486 6.4377 7.4934C6.1893 7.7184 5.9229 8.0379 5.6277 8.3934L3.9807 10.368C3.92397 10.4361 3.88121 10.5148 3.85488 10.5994C3.82854 10.6841 3.81913 10.7731 3.8272 10.8614C3.84349 11.0397 3.92994 11.2043 4.06755 11.3188C4.20516 11.4334 4.38264 11.4886 4.56096 11.4724C4.73928 11.4561 4.90383 11.3696 5.0184 11.232L6.6357 9.2916C6.9687 8.8911 7.1748 8.6472 7.3431 8.4951C7.38712 8.4524 7.43642 8.4155 7.4898 8.3853L7.4961 8.3826L7.4997 8.3808L7.5096 8.3853C7.56329 8.41544 7.6129 8.45234 7.6572 8.4951C7.8255 8.6481 8.0307 8.8911 8.3646 9.2916L8.6274 9.6066C8.9235 9.9621 9.1899 10.2816 9.4383 10.5066C9.7092 10.7514 10.0503 10.9692 10.5003 10.9692C10.9503 10.9692 11.2905 10.7514 11.5623 10.5066C11.8107 10.2816 12.0771 9.9621 12.3723 9.6066L14.0184 7.632Z" fill="#9097A7"/>
</svg>
